<svg xmlns="http://www.w3.org/2000/svg" viewBox="0 0 2210 2210"><defs><style>.cls-1,.cls-2,.cls-3,.cls-4,.cls-5,.cls-6,.cls-7{fill:none;}.cls-1{stroke:#263f95;}.cls-1,.cls-2,.cls-3,.cls-4,.cls-5,.cls-6{stroke-linecap:round;stroke-linejoin:round;stroke-width:4px;}.cls-2{stroke:#fff;}.cls-3{stroke:#ffd636;}.cls-4{stroke:#328cba;}.cls-5,.cls-7{stroke:#000;}.cls-6{stroke:#ba1200;}.cls-7{stroke-miterlimit:10;stroke-width:10px;}</style></defs><g id="Calque_2" data-name="Calque 2"><g id="aile_2" data-name="aile 2"><path class="cls-1" d="M484.45,1219.48c0,.19,14.46-.07,14.46,0,0,.32-20.78,6.66-20.78,6.87,0,.43,45.16-.41,45.16,0s-40.68,6.43-40.68,7c0,.34,56.65-.32,56.65,0s-55.68,6.23-55.68,7c0,1.06,76.21-.85,76.21,0s-70.44,6-70.44,6.91c0,2.18,155.57-2,155.57,0,0,2.14-152.07,6.34-152.07,7.17,0,1,129.86-.88,129.86,0,0,1.39-121.71,6.13-121.71,6.89,0,1.11,100.57-1.22,100.57,0,0,.47-92.69,6.32-92.69,7,0,.94,78.56-.94,78.56,0,0,.39-71,6.2-71,7,0,.51,55.75-.44,55.75,0,0,.23-40.34,6.78-40.34,7.18,0,.23,28.93-.31,28.93,0"/><path class="cls-1" d="M447.89,1103.15c0,.06,7.65,0,7.65,0s-5.57,7.08-5.57,7.18,16.11-.2,16.11,0-14.42,6.85-14.42,6.93,21.94-.28,21.94,0-20.7,6.77-20.7,7,30.51-.16,30.51,0-26.59,6.67-26.59,7c0,.56,43-.6,43,0s-42.75,6.72-42.75,7c0,.44,57.59-.28,57.59,0,0,.76-52.38,6.41-52.38,6.83,0,.61,73-.42,73,0S466,1151.19,466,1152c0,3,432.65-4.47,432.65,0,0,5.69-430.17,1.85-430.17,6.93,0,4.35,433.07-5,433.07,0,0,3.07-427.74,1.58-427.74,7,0,3.68,429-5.34,429,0,0,5.76-424.12,3.77-424.12,6.87,0,4.56,426.85-3.2,426.85,0,0,5.45-419,1.39-419,6.94,0,4.07,421.63-2.19,421.63,0,0,6-412.05,1.22-412.05,7.11,0,4.8,411.21-4.79,411.21,0,0,2.77-401.69,3.89-401.69,7.11,0,3.49,402.94-6,402.94,0,0,4.1-390.69,2.38-390.69,6.92s393.08-4.47,393.08,0c0,2.1-378.51,4.35-378.51,7.2,0,4.25,376.62-2.54,376.62,0,0,3.67-362,4.89-362,6.83,0,4.19,361-1.9,361,0s-346,4.2-346,7.05c0,4.18,348.94-2.86,348.94,0,0,3.24-334.89,3.47-334.89,7.15,0,3.25,332.79-2.35,332.79,0s-328,2.68-328,7c0,2.33,328.61-4.86,328.61,0,0,1.42-170.93,4.58-170.93,7,0,1.47,171.24-2.21,171.24,0,0,1.53-146,5.25-146,6.87,0,1.42,144-1.93,144,0,0,.9-130.77,6-130.77,6.82,0,1.33,126.33-1.08,126.33,0,0,1.58-110.17,6-110.17,6.92s111.9-.89,111.9,0c0,1.11-100.23,6.65-100.23,7.2s96.33-1.19,96.33,0-86.7,6.63-86.7,7.11c0,1,85.27-.74,85.27,0,0,.9-79.74,6.09-79.74,6.84,0,.56,75.78-.44,75.78,0s-69.29,6-69.29,7c0,.49,65.45-.67,65.45,0,0,.37-56.15,6.12-56.15,6.83s54.44-.29,54.44,0-49.73,6.73-49.73,7c0,.64,43.55-.58,43.55,0s-38,6.44-38,7c0,.31,34.3-.49,34.3,0,0,.18-28.76,6.93-28.76,7.19s21.91-.14,21.91,0-18.88,6.88-18.88,7,14.87-.16,14.87,0-9.29,6.87-9.29,7,2.76,0,2.76,0"/><path class="cls-1" d="M408.67,942.21c0,.09,17-.15,17,0s-26.33,6.76-26.33,7.1,46.5-.43,46.5,0c0,.78-53,6.51-53,6.9,0,.6,67.41-.65,67.41,0,0,.84-68.37,6-68.37,6.87,0,.53,84.13-.77,84.13,0s-83.06,6-83.06,7.15,92.9-.56,92.9,0c0,1.2-95.44,6.56-95.44,7.16,0,.81,106.24-1.39,106.24,0,0,.77-102.55,6.16-102.55,7.17,0,.64,113.4-1.08,113.4,0s-111.31,5.17-111.31,6.84c0,1.47,120.82-1.08,120.82,0,0,1.31-119.2,5.37-119.2,6.84s126.27-.65,126.27,0c0,1.07-122.27,6.5-122.27,7.19,0,1.14,131.87-1.85,131.87,0,0,1.25-127.43,5-127.43,6.89,0,.88,138.58-.7,138.58,0s-133.68,5.51-133.68,7c0,.77,139.69-1.46,139.69,0,0,1.13-135.6,6.14-135.6,7,0,1.63,143.6-.79,143.6,0,0,2-138.89,5.7-138.89,6.83s149.77-1,149.77,0c0,1.68-142.44,5.26-142.44,6.93,0,1,153.54-1.57,153.54,0,0,2.19-147.43,5.67-147.43,7,0,1.91,335.45-4,335.45,0,0,3.82-327.69,4.16-327.69,7.06,0,2,338-3.33,338,0,0,2.64-330.55,4.37-330.55,6.91,0,3.87,341.78-2.22,341.78,0,0,4.78-328.33,2.79-328.33,6.85,0,4.4,337-2.78,337,0,0,4.07-321,3.4-321,7,0,3.33,329.73-3,329.73,0,0,2.25-317.11,3.62-317.11,7.08,0,3.25,329.34-3.65,329.34,0,0,3.93-315.69,3.78-315.69,7.12s324.4-4.11,324.4,0c0,1.75-312,4.9-312,6.86,0,3.42,320.77-3.81,320.77,0,0,2.59-309.07,2.81-309.07,7,0,4.71,319.69-4.73,319.69,0,0,1.65-304.73,4.1-304.73,7s311.8-2.23,311.8,0c0,2.54-301.17,3.25-301.17,6.83,0,4.38,312.79-3.71,312.79,0,0,4.18-301.6,4-301.6,7.15,0,2.35,312.48-4.67,312.48,0,0,2-304.29,4.8-304.29,6.83s310.31-4.27,310.31,0c0,2.87-302.53,3.53-302.53,7s312.59-2.14,312.59,0c0,3.09-307.65,3.87-307.65,7.11,0,2,309.35-3.87,309.35,0"/><path class="cls-1" d="M353,804c0,.11,16.82-.17,16.82,0,0,.42-27.78,6.62-27.78,7s48.51-.63,48.51,0-48.37,6.41-48.37,6.88c0,.7,67.68-.45,67.68,0,0,.68-69.09,6.75-69.09,7.18,0,1.07,84.73-1.12,84.73,0,0,.84-85.34,5.6-85.34,6.88,0,1.08,96-.74,96,0,0,1.1-92.75,6.34-92.75,7,0,.79,106.89-1.22,106.89,0,0,1.05-100.37,5.94-100.37,7.1,0,1.5,115.51-1.54,115.51,0,0,1.22-110.48,6.19-110.48,7.15s122.21-.92,122.21,0-116.67,5.65-116.67,7.15,128.31-1.12,128.31,0-121,6-121,7,134.2-.7,134.2,0-128.89,5.28-128.89,6.91,140.35-1.73,140.35,0c0,1.12-132.34,5.86-132.34,7,0,1.58,141.58-.75,141.58,0,0,1.6-131.38,6.2-131.38,7.19,0,1.55,144.59-1.32,144.59,0,0,1.66-136,5.85-136,7,0,2.14,145.64-1.27,145.64,0,0,1.76-133.85,5.36-133.85,6.94s145.72-1.3,145.72,0c0,2-137.54,5.36-137.54,6.82s146.71-1.06,146.71,0c0,1.79-135.66,5.21-135.66,6.89s148.32-2.14,148.32,0c0,1.47-137.73,6.19-137.73,7.18,0,1.58,148.94-2.2,148.94,0,0,1.31-139.42,5-139.42,6.94,0,1,150-1.4,150,0,0,1.13-138.35,5.7-138.35,7,0,1.91,149.71-1.93,149.71,0,0,.81-138.66,6.1-138.66,7.18,0,1.65,149.12-1.37,149.12,0,0,2-137.87,5.57-137.87,7,0,1.6,146.86-1.75,146.86,0,0,2-137.7,6-137.7,6.89,0,1.58,149.58-.76,149.58,0,0,1.7-135.74,5.94-135.74,7.15,0,1.75,144.72-1.71,144.72,0,0,1.3-132.65,5.38-132.65,7.18s144-1.75,144,0c0,1.93-135.16,5.84-135.16,6.95,0,.94,144.82-.74,144.82,0s-136,5.46-136,7.05c0,1.12,145.75-2,145.75,0,0,.74-133.92,5.81-133.92,7.08,0,.76,146.35-1,146.35,0,0,1.68-136.68,5.68-136.68,7.07,0,1.19,145.93-1.24,145.93,0,0,1.67-140.13,6-140.13,6.84,0,1.2,149-1.74,149,0s-140.25,5.12-140.25,7c0,1.07,148.87-2.26,148.87,0,0,1.23-145.29,6.15-145.29,7.06s155-1.74,155,0c0,2.21-149.14,6.1-149.14,7.12,0,1.22,161.76-2.31,161.76,0s-153.86,4.8-153.86,6.92c0,1.16,163.09-1.43,163.09,0"/><path class="cls-2" d="M368.69,804.48c0,.07,3.05,0,3.05,0,0,.29,19.9,6.73,19.9,7,0,0,2.87,0,2.87,0,0,.2,14.37,7,14.37,7.12s2.58,0,2.58,0,13.09,6.95,13.09,7.1,2.28,0,2.28,0,12.42,6.87,12.42,7,1.44,0,1.44,0,10.45,7,10.45,7.2,2.64,0,2.64,0c0,.17,10.44,6.81,10.44,6.88s2.13,0,2.13,0,9.56,7.11,9.56,7.18,1.78,0,1.78,0,13.45,7,13.45,7.13,1.74,0,1.74,0,10.39,7,10.39,7.14,1.09,0,1.09,0,7.75,7,7.75,7.14,2.41,0,2.41,0,8.59,6.71,8.59,6.82,1.22,0,1.22,0,11.13,6.86,11.13,7,.87,0,.87,0c0,.17,10.64,6.91,10.64,7s1.76,0,1.76,0,7.5,6.79,7.5,6.9h4.23c0,.1,6.48,6.81,6.48,6.88s4.73,0,4.73,0,7.51,6.73,7.51,6.84,2.83,0,2.83,0,8.25,7.06,8.25,7.2,1.65,0,1.65,0,8.85,6.76,8.85,6.89,1.63,0,1.63,0,9.56,6.89,9.56,7H612c0,.08,8.39,7,8.39,7.08h2.94c0,.08,9,7,9,7.19h3.18c0,.06,7.46,6.81,7.46,7s1.57,0,1.57,0,9.84,6.8,9.84,6.93.19,0,.19,0,9.93,7,9.93,7.06.33,0,.33,0,7.59,6.95,7.59,7.07,3.82,0,3.82,0,8,7,8,7.14,1.55,0,1.55,0,7.74,6.71,7.74,6.85h3.73c0,.07,6.45,7.08,6.45,7.17s1.82,0,1.82,0,7,6.84,7,6.91,4.93,0,4.93,0,8.58,6.73,8.58,6.88.18,0,.18,0,8,6.93,8,7.06h1.52c0,.06,8.22,6.73,8.22,6.88s1.53,0,1.53,0,8.86,7,8.86,7.07,1.91,0,1.91,0,7.47,6.87,7.47,7,2.3,0,2.3,0,8,6.81,8,6.88h.4c0,.07,9.17,6.9,9.17,7s1.62,0,1.62,0,6.57,6.75,6.57,6.85,4.2,0,4.2,0,6.48,6.74,6.48,6.85,2.85,0,2.85,0,4.54,6.89,4.54,6.94,2.11,0,2.11,0c0,.19,10.5,7.07,10.5,7.13s2.5,0,2.5,0,4.79,6.92,4.79,7,1.52,0,1.52,0,9.46,6.8,9.46,6.88,1.49,0,1.49,0,7.87,6.74,7.87,6.86,1.48,0,1.48,0,6.26,6.91,6.26,7h1.38c0,.16,11.69,6.92,11.69,7.08s.87,0,.87,0,6.75,6.82,6.75,6.88,1.48,0,1.48,0,7.18,6.83,7.18,6.94,4.12,0,4.12,0,.23,7,.23,7h2.2c0,.09,2.55,7.08,2.55,7.15h.94s2.15,6.86,2.15,6.92h.9c0,.1-.32,7-.32,7.1H904c0,.08-.71,6.83-.71,6.89h.91c0,.1.81,6.84.81,6.93h.9c0,.09.57,7,.57,7h.9c0,.07.3,6.86.3,7h.89c0,.08.45,6.87.45,7s1.58,0,1.58,0-.56,7.07-.56,7.14h1.07c0,.1-1.44,7-1.44,7.05h.89s-.78,7-.78,7h.9c0,.08-1.45,6.78-1.45,6.84h1.13c0,.1-1.22,7.14-1.22,7.19H910s-2.28,6.81-2.28,6.9h.68c0,.08-2.84,7-2.84,7.06h3.3c0,.07-3,7-3,7h1s-4.51,6.8-4.51,6.91h3.19c0,.08-2.9,6.88-2.9,7h.49c0,.1-3,6.88-3,7h0c0,.07-2.78,7-2.78,7.1s.25,0,.25,0-3.65,7.07-3.65,7.14h1.06c0,.12-5.38,6.74-5.38,6.84s3.26,0,3.26,0-5.71,6.91-5.71,7h2c0,.08-6.81,6.8-6.81,6.94h1.08c0,.12-6.77,7-6.77,7.18s.83,0,.83,0-5.92,6.78-5.92,6.85,2.63,0,2.63,0-6.17,7-6.17,7.12h.45"/><path class="cls-2" d="M720.25,1241.3s9.87,0,9.87,0,24.46,6.56,24.46,6.89c0,0,2.89,0,2.89,0,0,.23,17.27,6.88,17.27,7.1,0,0,3.62,0,3.62,0s11.26,6.83,11.26,7c0,0,1,0,1,0s9.81,7,9.81,7.1,1.57,0,1.57,0,7.57,6.85,7.57,7,1.47,0,1.47,0,8.82,6.73,8.82,6.81.23,0,.23,0,5,7,5,7.09h1.42c0,.06,4.94,7,4.94,7s2.25,0,2.25,0,4.07,6.83,4.07,7h2.66c0,.06,5.58,7.06,5.58,7.16H846s4.41,6.78,4.41,6.84h1.07c0,.09,2.8,6.76,2.8,6.86s3,0,3,0,2.11,7.09,2.11,7.14,1,0,1,0"/><path class="cls-2" d="M682.39,1240.41c0,.09,12.22-.11,12.22,0,0,.54-50.27,6.08-50.27,6.81,0,0,2.59,0,2.59,0,0,.31-27.46,6.68-27.46,7.08,0,0,4.51,0,4.51,0s-20.11,6.76-20.11,6.94c0,0,.76,0,.76,0,0,.3-19.21,6.63-19.21,6.82,0,0,5.05,0,5.05,0s-18.76,6.91-18.76,7.19c0,0,1.55,0,1.55,0s-12.94,7-12.94,7.14,1.9,0,1.9,0"/><path class="cls-2" d="M482.52,1219s6.45,0,6.45,0-9.51,7-9.51,7.12h.86c0,.07.59,7,.59,7s.93,0,.93,0,2.24,6.77,2.24,6.86h1c0,.1,1.94,6.87,1.94,6.94H489s3.27,6.88,3.27,7,.34,0,.34,0,6.47,7,6.47,7.08h1.21c0,.07,4.24,6.85,4.24,6.9h2.41c0,.13,7.23,6.77,7.23,6.87h1.35c0,.16,12.41,6.81,12.41,7s4.76,0,4.76,0"/><path class="cls-2" d="M499.6,1219.86s3.08,0,3.08,0,18.89,6.9,18.89,7,3.54,0,3.54,0,14,6.89,14,7,.72,0,.72,0"/><path class="cls-2" d="M447.69,1102.67s4.36,0,4.36,0-1.7,6.9-1.7,7h.87c0,.06-1.49,6.91-1.49,7s3.75,0,3.75,0-2,7-2,7.1h1.25c0,.1,2.41,7.1,2.41,7.19h1.65c0,.1-.14,6.94-.14,7s3.37,0,3.37,0,1.7,6.86,1.7,7h.67c0,.09,1.66,7,1.66,7.12s1,0,1,0,2.34,7,2.34,7.1,3.39,0,3.39,0,1.8,6.92,1.8,7h.14c0,.1,5.79,6.72,5.79,6.83s2,0,2,0,6.66,6.83,6.66,6.91h1c0,.07,6.55,6.92,6.55,7s1.52,0,1.52,0,8.43,6.76,8.43,6.85,2.6,0,2.6,0,7.57,6.8,7.57,6.92,2.79,0,2.79,0,13.72,6.93,13.72,7.15c0,0,1,0,1,0s13.56,7,13.56,7.18,1.37,0,1.37,0,13.48,6.78,13.48,6.92,3.34,0,3.34,0,9.22,6.87,9.22,7,3.59,0,3.59,0,3.29,6.92,3.29,7h.87"/><path class="cls-2" d="M454,1103.55s1.06,0,1.06,0,7,6.78,7,6.87,4.47,0,4.47,0,8.35,6.82,8.35,7,.77,0,.77,0,7.94,6.88,7.94,7,1.37,0,1.37,0,12.94,6.72,12.94,6.91c0,0,.64,0,.64,0,0,.22,14.12,7.08,14.12,7.17s4.52,0,4.52,0c0,.23,19.71,6.76,19.71,6.89s.7-.05.7,0"/><path class="cls-2" d="M406.69,941.73c0,.07,8.64,0,8.64,0s-17.75,7-17.75,7.18c0,0,3.08,0,3.08,0s-6.77,6.89-6.77,6.93h.48c0,.11-2.42,6.89-2.42,6.95h.89c0,.08-.78,6.94-.78,7s1.42,0,1.42,0-3.4,6.92-3.4,7h2.49c0,.1-.13,6.77-.13,6.83h.9s1.05,6.85,1.05,6.93h.93c0,.1,1.47,6.84,1.47,6.93h1.93s1.79,6.89,1.79,7h.75c0,.1,2.13,6.82,2.13,6.87h2.75c0,.1,2.48,6.85,2.48,6.94h3.18c0,.12,2.7,7,2.7,7.11s.35,0,.35,0,4.27,7,4.27,7.11,1.69,0,1.69,0,4.6,6.83,4.6,6.92,3.12,0,3.12,0,4.19,7.13,4.19,7.2H433c0,.09,6.54,6.78,6.54,6.83h1.28s6.51,7,6.51,7,2.31,0,2.31,0,11,7,11,7.15,1.95,0,1.95,0,12.53,6.79,12.53,7c0,0,2.08,0,2.08,0s13.3,6.77,13.3,7c0,0,1.7,0,1.7,0s11.17,6.73,11.17,6.87,1.31,0,1.31,0,8.25,6.75,8.25,6.82,1.59,0,1.59,0c0,.22,14.12,6.79,14.12,6.92s2.06,0,2.06,0,9.31,7.13,9.31,7.2,1.65,0,1.65,0,11.93,7,11.93,7.11,1.06,0,1.06,0,7.08,6.75,7.08,6.84h2.46c0,.07,6.53,6.85,6.53,7s2.72,0,2.72,0,8.18,6.69,8.18,6.83h1.71c0,.06,2,7,2,7s.89,0,.89,0"/><path class="cls-2" d="M426,942.62s3.83,0,3.83,0c0,.21,17.66,6.86,17.66,7.1,0,0,2.41,0,2.41,0,0,.18,10.3,6.81,10.3,6.9s1.95,0,1.95,0,11.45,6.71,11.45,6.87,4.12,0,4.12,0,9.45,7,9.45,7.15.25,0,.25,0,7.82,7.1,7.82,7.16,2.9,0,2.9,0S508,984.85,508,985s.91,0,.91,0,8.63,6.68,8.63,6.84.84,0,.84,0,7.24,6.72,7.24,6.84,1.53,0,1.53,0,7.82,7.13,7.82,7.19,1.49,0,1.49,0,8,6.73,8,6.89h1.61s6.15,6.86,6.15,7,1.4,0,1.4,0,6.91,6.89,6.91,7h1.35c0,.14,7.3,6.75,7.3,6.83h2c0,.16,11.06,6.78,11.06,6.93s.4,0,.4,0"/><path class="cls-2" d="M352.91,803.53s4.49,0,4.49,0c0,.26-15.68,6.78-15.68,7h.94c0,.09-.88,6.81-.88,6.87h1.12c0,.08-2.63,7.14-2.63,7.19h2.38c0,.08-3.09,6.77-3.09,6.88h1.29c0,.09,1.87,6.91,1.87,7s1.75,0,1.75,0,4.67,7,4.67,7.1,1.48,0,1.48,0,3.45,7.08,3.45,7.15h.76c0,.07,4.68,7,4.68,7.15h.73c0,.1,6.49,6.91,6.49,7h1.7s3.53,6.82,3.53,6.91,3.9,0,3.9,0,4,6.91,4,7,1.95,0,1.95,0,8.17,7.11,8.17,7.19,2.42,0,2.42,0,6.12,6.89,6.12,7,1.63,0,1.63,0,10.09,6.79,10.09,6.93.42,0,.42,0,7.71,6.72,7.71,6.83H419c0,.16,10.45,6.73,10.45,6.88s1.73,0,1.73,0,8.83,7.1,8.83,7.19,2.21,0,2.21,0,7.28,6.8,7.28,6.94,3.38,0,3.38,0,8.22,6.87,8.22,7,3.48,0,3.48,0,7.57,7.1,7.57,7.18,3.39,0,3.39,0,7.86,6.85,7.86,7,1.72,0,1.72,0,7.45,6.82,7.45,6.89,5,0,5,0,8.82,7.05,8.82,7.15.74,0,.74,0,11.36,7,11.36,7.18c0,0,.38,0,.38,0s8.45,6.86,8.45,6.95,1.41,0,1.41,0,7.46,6.93,7.46,7.05,2.19,0,2.19,0,9.72,7,9.72,7.07h2.14c0,.13,7.61,7,7.61,7.08h.47c0,.1,5.45,6.79,5.45,6.84s1.54,0,1.54,0,5.81,6.85,5.81,7,1.19,0,1.19,0,4,7,4,7h.62c0,.14,5.34,7.07,5.34,7.13s3.11,0,3.11,0,3.12,6.81,3.12,6.92h1.06"/></g><g id="livre"><path class="cls-3" d="M877.83,539.73s1.27,0,1.27,0-8.85,6.82-8.85,7,13.82-.17,13.82,0-22.37,6.52-22.37,6.82,27-.24,27,0-32.34,6.76-32.34,7c0,.41,36.41-.46,36.41,0s-32.82,6.5-32.82,7,37.26-.5,37.26,0-34.93,6.47-34.93,7,41.06-.31,41.06,0c0,.47-36.41,6.32-36.41,6.81,0,.31,39.27-.36,39.27,0s-33.24,6.8-33.24,7.15c0,.56,36.86-.53,36.86,0,0,.25-34.92,6.69-34.92,7.08s38.44-.24,38.44,0-33.81,6.8-33.81,7.11c0,.49,38.71-.26,38.71,0s-32.7,6.76-32.7,7.05,38.9-.54,38.9,0-38.62,6.37-38.62,6.9,42.62-.51,42.62,0-38.2,6.58-38.2,7.13c0,.26,43-.56,43,0,0,.22-38.79,6.7-38.79,7.09s43.14-.42,43.14,0c0,.21-36.82,6.94-36.82,7.19s42.12-.39,42.12,0c0,.55-36.85,6.79-36.85,7.13,0,.5,42.72-.4,42.72,0s-38.51,6.78-38.51,7.16,40-.24,40,0c0,.56-36.7,6.88-36.7,7.19s43-.55,43,0-39,6.57-39,7,41.83-.64,41.83,0c0,.22-39.91,6.83-39.91,7.09,0,.48,45.93-.25,45.93,0s-42,6.44-42,6.91,48.47-.28,48.47,0-42.37,6.78-42.37,7c0,.66,46.37-.54,46.37,0s-41.19,6.76-41.19,7.15,43.69-.64,43.69,0c0,.36-41.11,6.53-41.11,7,0,.68,44.69-.48,44.69,0,0,.24-38.35,6.7-38.35,7,0,.68,44.58-.5,44.58,0,0,.25-43,6.76-43,7.15s49.58-.7,49.58,0c0,.35-44.61,6.23-44.61,6.82s46.11-.63,46.11,0c0,.32-41.35,6.49-41.35,6.94s48.68-.34,48.68,0c0,.51-44.45,6.36-44.45,6.89s46-.28,46,0c0,.63-42.44,6.53-42.44,7.15s46.5-.31,46.5,0-44.31,6.68-44.31,7.06c0,.63,52.1-.42,52.1,0,0,.65-47.57,6.79-47.57,7.13,0,.5,49.9-.71,49.9,0,0,.29-45.69,6.59-45.69,7s50.37-.38,50.37,0-44.48,6.23-44.48,6.84c0,.26,51.72-.69,51.72,0,0,.29-47.12,6.83-47.12,7.09s48.33-.5,48.33,0-45,6.54-45,7.14,51.53-.77,51.53,0c0,.25-47.32,6.22-47.32,6.92,0,.52,52.52-.39,52.52,0,0,.62-47.62,6.6-47.62,7s52.2-.53,52.2,0-50.8,6.65-50.8,7.09c0,.76,54.58-.41,54.58,0s-47.26,6.26-47.26,6.84,53.14-.77,53.14,0c0,.51-51.75,6.1-51.75,6.8s54.94-.5,54.94,0c0,.33-48,6.68-48,7.09s53.83-.66,53.83,0c0,.49-52.85,6.63-52.85,7.16,0,.32,54.86-.77,54.86,0,0,.43-49.12,6.5-49.12,6.93,0,.79,56.1-.58,56.1,0s-52.15,6.56-52.15,7.18,55.67-.81,55.67,0c0,.35-53,6.92-53,7.19,0,.56,56.89-.49,56.89,0s-51.59,6.49-51.59,6.88,57.56-.69,57.56,0-53.33,6.25-53.33,6.92c0,.28,57.59-.77,57.59,0s-54.18,6.2-54.18,7c0,.62,59.14-.35,59.14,0s-55.67,6.35-55.67,6.84c0,.72,58.65-.64,58.65,0s-52.34,6.57-52.34,7,55.45-.57,55.45,0c0,.72-51.07,6.44-51.07,6.92s57.39-.36,57.39,0-53.33,6.48-53.33,6.88,55.36-.53,55.36,0-50.7,6.55-50.7,6.83c0,.87,57.47-.64,57.47,0,0,.83-56.2,6.78-56.2,7.18,0,.6,61.53-.57,61.53,0s-57.65,6.48-57.65,7.07,62.19-.38,62.19,0-54.63,6.76-54.63,7.13,57.35-.4,57.35,0-53.67,6.21-53.67,7,57.28-.74,57.28,0c0,.38-53.83,6.22-53.83,6.84s59.42-.69,59.42,0-54.19,6.55-54.19,6.86c0,.69,58.67-.66,58.67,0,0,.49-57.25,6.37-57.25,6.94,0,.38,59.91-.31,59.91,0s-53.9,6.89-53.9,7.17,60.73-.66,60.73,0-57,6.64-57,7c0,.66,59.52-.54,59.52,0,0,.36-54.79,6.36-54.79,7,0,.91,61-.69,61,0,0,.38-56.22,6.35-56.22,7.09,0,.56,60.4-.33,60.4,0,0,.74-55.78,6.68-55.78,7.15s60-.64,60,0-56.26,6.21-56.26,6.88c0,.43,60.56-.37,60.56,0,0,.66-59.35,6.5-59.35,6.87s63-.55,63,0-55.94,6.53-55.94,6.94,62.62-.57,62.62,0-59.58,6.73-59.58,7.1c0,.81,65-.68,65,0s-60.15,6.14-60.15,6.9c0,.53,63.11-.48,63.11,0s-60.25,6.46-60.25,6.81c0,.51,65.55-.59,65.55,0s-59.26,6.4-59.26,6.88,60.88-.82,60.88,0-56.48,6.52-56.48,6.93,60.69-.88,60.69,0c0,.56-56.39,6.7-56.39,7,0,.49,63.34-.44,63.34,0s-60.08,6.2-60.08,7.1c0,.48,65.7-.7,65.7,0s-64,6.48-64,6.84c0,.57,67.18-.7,67.18,0s-61.18,6.32-61.18,7c0,.57,63.52-.68,63.52,0,0,.51-61.25,6.54-61.25,6.91,0,.6,65.36-1,65.36,0,0,.34-59.23,6.08-59.23,6.81,0,1,64.6-.93,64.6,0,0,.53-58.94,6.31-58.94,7.07,0,.48,63.6-.56,63.6,0S1180,1106,1180,1106.74s63.06-.34,63.06,0-61.26,6.45-61.26,7.16c0,.52,67.88-.92,67.88,0,0,.62-63.37,6.69-63.37,7.16,0,.7,66.41-.6,66.41,0s-62.52,6.31-62.52,7.16c0,.55,69-.6,69,0,0,.34-63,6.2-63,7,0,.44,67.06-.45,67.06,0,0,.92-63.42,6.37-63.42,7.11,0,.89,68.23-.34,68.23,0,0,.92-62.88,6.65-62.88,7.06s68-.63,68,0c0,.44-64,6.52-64,6.94,0,.6,65.18-.71,65.18,0,0,.53-63.35,6.63-63.35,7.18,0,.78,68.1-.66,68.1,0s-62.42,6.16-62.42,7c0,.52,67-1,67,0,0,.7-63.36,6.59-63.36,7,0,1,68.5-.59,68.5,0,0,.32-62.13,6.42-62.13,6.91s67.85-.81,67.85,0c0,.56-65.92,6.52-65.92,7s70.49-.77,70.49,0-64,5.89-64,6.84c0,.66,68.77-.67,68.77,0,0,.9-64.7,6-64.7,7s69.74-1,69.74,0c0,.76-68.77,6.26-68.77,6.84,0,1,71.8-1,71.8,0,0,.5-65.34,6.06-65.34,6.86s71.24-.8,71.24,0-66.41,6.65-66.41,7c0,.89,69.82-.67,69.82,0s-68,6.54-68,7.09c0,.83,73.39-.6,73.39,0,0,.36-66.82,5.88-66.82,6.86s71.14-.66,71.14,0-67.06,6.23-67.06,7c0,.37,69.61-.47,69.61,0,0,.8-68.78,5.84-68.78,6.86,0,.68,72.39-.54,72.39,0s-65.25,6.45-65.25,7,69.54-.56,69.54,0c0,.84-64.87,6.59-64.87,7,0,.72,72.28-.73,72.28,0s-70.43,6.41-70.43,6.87c0,.75,75.23-.76,75.23,0,0,1-71.73,6-71.73,7s72.55-.42,72.55,0-67.79,6.23-67.79,6.93c0,.45,74-.78,74,0s-67,6.15-67,7,72.55-.79,72.55,0-71.4,6.15-71.4,7,73.38-1,73.38,0-70,6.24-70,7,77-1,77,0c0,.86-71.11,5.95-71.11,6.88,0,.63,73.94-.46,73.94,0,0,.79-69.19,6.48-69.19,7,0,.9,74-.87,74,0,0,.63-71.07,6-71.07,7s77.43-.52,77.43,0-73,6.69-73,7.13,76.1-.45,76.1,0c0,1-71.72,6.38-71.72,7,0,.93,74.82-.6,74.82,0s-71.37,6-71.37,6.94c0,.66,77.29-.46,77.29,0s-73,6.28-73,7,78.76-.87,78.76,0c0,.68-71.24,6.12-71.24,7.13s72.17-.7,72.17,0-69.94,5.8-69.94,6.85c0,.39,75.84-.88,75.84,0,0,.63-71.62,6.32-71.62,7.14,0,.62,77.59-.57,77.59,0s-74.39,6.16-74.39,6.87,76.44-1.12,76.44,0c0,.49-71.7,6.18-71.7,7,0,.45,78.67-.68,78.67,0,0,1.06-73.68,6-73.68,7s75.34-.92,75.34,0-71.6,6.24-71.6,6.83c0,.87,78.55-.73,78.55,0,0,.55-73,6.37-73,7.13,0,.45,76.85-.47,76.85,0,0,.9-73.8,6.24-73.8,6.8s77.17-1.11,77.17,0c0,.66-74.83,6.6-74.83,7,0,1.14,81.33-1.14,81.33,0,0,.88-73.87,6-73.87,7,0,.55,79.1-.7,79.1,0,0,.87-78,6.43-78,7,0,1.09,81.57-1,81.57,0s-74,6.25-74,7c0,.4,79.49-.69,79.49,0,0,1.08-75.06,6.25-75.06,7.18s76.25-.58,76.25,0c0,.75-72.84,6-72.84,6.84,0,.66,76.89-.62,76.89,0,0,1-75.44,6.17-75.44,6.92s81.84-.5,81.84,0c0,.76-75.37,6.55-75.37,7.16,0,1,78.3-.64,78.3,0s-74.2,5.88-74.2,6.83c0,.58,79.53-1.21,79.53,0,0,.46-75.21,5.74-75.21,6.86,0,.86,78.73-.72,78.73,0,0,.42-68.73,6.62-68.73,7.13s64.44-.59,64.44,0"/><path class="cls-2" d="M877.48,540.47h.57c0,.06,3.86,7,3.86,7.07h2.76c0,.11,2.83,6.77,2.83,6.85h3.3c0,.1,1.2,7,1.2,7.1h2.22s3.34,6.74,3.34,6.84h2.25c0,.09,1.7,7.09,1.7,7.19s1.09,0,1.09,0,3.5,6.79,3.5,6.88h.16c0,.06,2.29,6.79,2.29,6.83h2.09c0,.08,3.83,7.09,3.83,7.18h2.37s2.51,6.86,2.51,6.9,1.15,0,1.15,0,3.83,6.94,3.83,7,.85,0,.85,0,3.38,6.84,3.38,6.88h1.08s2.26,6.8,2.26,6.89h3.66c0,.06.62,6.9.62,7s2.48,0,2.48,0,3.29,7.14,3.29,7.19h.35s6.27,6.84,6.27,6.91h1c0,.07,3.1,6.89,3.1,6.94h.67c0,.09,2.9,6.86,2.9,6.93s.68,0,.68,0,4.91,6.82,4.91,6.9.95,0,.95,0,2.52,7,2.52,7.1h1.73c0,.07,1.44,6.71,1.44,6.8h3.74c0,.06,2.55,7.14,2.55,7.19s1.87,0,1.87,0,.9,7.05.9,7.11h3.28c0,.1,2.07,6.82,2.07,6.86H984c0,.1,4.95,6.69,4.95,6.81s.89,0,.89,0,2.06,6.93,2.06,7h1.07s1.49,6.84,1.49,6.92,4,0,4,0,1.7,7,1.7,7.09h.37c0,.07,3.47,7.07,3.47,7.17s1.7,0,1.7,0,4.55,7,4.55,7h2.88c0,.07.7,6.78.7,6.87s2.1,0,2.1,0,4.26,6.89,4.26,7,1.33,0,1.33,0,2.32,7.06,2.32,7.17h1.06s2.87,6.81,2.87,6.85,1.39,0,1.39,0,5.15,6.89,5.15,7h.29c0,.1,1,6.79,1,6.83h3.26c0,.11,1.81,7.07,1.81,7.13h1.26c0,.1,4,6.73,4,6.82s2,0,2,0,2.16,6.87,2.16,6.95,3.52,0,3.52,0,.83,6.81.83,6.9.86,0,.86,0,3.57,7,3.57,7.07h1.35c0,.07,2.3,7,2.3,7.09h5c0,.07,1,6.79,1,6.89h1.09c0,.1,3.87,7.14,3.87,7.19h2.36c0,.08,2.38,7,2.38,7.1h1c0,.1,2.58,6.82,2.58,6.9h2.73c0,.09.85,6.76.85,6.81h2.38c0,.09,3.85,6.9,3.85,7h1.05c0,.09,4.25,6.93,4.25,7s.85,0,.85,0,3.81,7.07,3.81,7.15h.26c0,.12,3.65,6.87,3.65,7h.64c0,.09,3.51,6.74,3.51,6.83h1c0,.1,3,6.77,3,6.88s.4,0,.4,0,5.66,6.8,5.66,6.87,1,0,1,0,1.32,6.93,1.32,7h3.08c0,.09,2.44,6.89,2.44,7h2c0,.08,2.26,7,2.26,7.08h1.05s3.19,7,3.19,7.06h.05c0,.08,5,7.14,5,7.19s1.24,0,1.24,0,3.67,6.77,3.67,6.83h1c0,.09,2.8,7,2.8,7s1.06,0,1.06,0,3.5,7,3.5,7.14,1.06,0,1.06,0,4.35,6.79,4.35,6.87h.26s2.13,7,2.13,7.13,1.15,0,1.15,0,4.14,6.84,4.14,6.93h.36c0,.12,4.06,7.07,4.06,7.12h2.25s3.42,6.84,3.42,6.88,1.15,0,1.15,0,1.7,7,1.7,7.07h2.85s.9,6.86.9,6.94h4.11c0,.1.9,7.14.9,7.18s2,0,2,0,2.66,7.11,2.66,7.15H1196c0,.06,2.06,6.75,2.06,6.81H1202c0,.09,1.31,6.87,1.31,7s.06,0,.06,0,4.72,6.82,4.72,6.9h1.06c0,.06,3,6.87,3,6.94h1.77c0,.07,1.6,7,1.6,7.12s1,0,1,0,5.46,6.79,5.46,6.88h2.54c0,.07.21,7.07.21,7.11h3.45c0,.05,1.78,6.94,1.78,7s1.29,0,1.29,0,3.71,6.79,3.71,6.91H1236c0,.1,5,6.91,5,7s.57,0,.57,0,1.52,7.07,1.52,7.15h2.81c0,.09,3.45,7,3.45,7.06h1.58c0,.06,2.08,7,2.08,7s1.07,0,1.07,0,4.2,7,4.2,7.13,1.63,0,1.63,0,1.14,6.92,1.14,7h.39c0,.11,3.1,6.9,3.1,7h3.89s2.47,6.78,2.47,6.82h1.07c0,.11,5.16,6.88,5.16,6.94h1.25c0,.07,1.51,7,1.51,7.13s1.07,0,1.07,0,1.59,7,1.59,7.07h1.22c0,.1,4.13,7,4.13,7.08s1.46,0,1.46,0,4.18,7.07,4.18,7.2,1.08,0,1.08,0,4.44,7.06,4.44,7.13h1.86s.28,7.11.28,7.2h2.48c0,.08,3.47,6.85,3.47,7h1.08c0,.09,2.22,7,2.22,7h2.94c0,.11,3.82,7.09,3.82,7.15h1c0,.07,2.4,6.78,2.4,6.83h1.08c0,.1,1.93,6.76,1.93,6.82s2.47,0,2.47,0,4.45,7.08,4.45,7.2,1.64,0,1.64,0,1.74,6.76,1.74,6.8h1.08c0,.1,1.58,7.08,1.58,7.16h3.4c0,.07,2.88,6.79,2.88,6.83h1.09s1.54,7,1.54,7.07,4.31,0,4.31,0,2.14,7.08,2.14,7.13h1.09c0,.12,4.75,7,4.75,7.06s.4,0,.4,0,3,6.85,3,6.94.47,0,.47,0,2.51,6.94,2.51,7h1.16c0,.11,6,6.75,6,6.87h.78s2.66,6.93,2.66,7,1.33,0,1.33,0,.83,6.89.83,7,4.2,0,4.2,0,2.85,7.09,2.85,7.19,1.06,0,1.06,0,3,6.91,3,7a2.43,2.43,0,0,0,.27,0c0,.06,3.67,7.12,3.67,7.17s3.17,0,3.17,0,0,7.1,0,7.18h4.54c0,.07,1.35,7,1.35,7.07h1.14c0,.11,4.29,6.88,4.29,7h2.43c0,.07,2.36,7,2.36,7.12h.83c0,.1,1,6.89,1,7s3.4,0,3.4,0,1.89,6.72,1.89,6.82h.27c0,.07,4.47,6.84,4.47,7H1425c0,.1,3.12,7.06,3.12,7.14s1.1,0,1.1,0,2.18,6.87,2.18,6.92.37,0,.37,0,3.43,7.11,3.43,7.19,4.61,0,4.61,0,.14,6.93.14,7,3.77,0,3.77,0,4,6.91,4,7h.84c0,.07,2.09,6.86,2.09,7s2.38,0,2.38,0,3.37,6.76,3.37,6.87H1458s.77,6.82.77,6.9,1.86,0,1.86,0,1.25,6.86,1.25,6.91h4.64c0,.09,1.76,7.06,1.76,7.14s2.3,0,2.3,0,1.73,7.07,1.73,7.14,2.5,0,2.5,0,1.13,7,1.13,7.1,4.4,0,4.4,0,1.76,7,1.76,7.13h2.27s3.42,6.93,3.42,7h1.63s2.61,6.8,2.61,6.86,1.71,0,1.71,0-13.23,6.65-13.23,6.84c0,0,1.17,0,1.17,0"/><path class="cls-2" d="M877.91,539s1.26,0,1.26,0-8.84,6.81-8.84,7c0,0,1.92,0,1.92,0,0,.17-10.47,6.67-10.47,6.83s3.83,0,3.83,0-9.2,6.92-9.2,7,1.73,0,1.73,0,.77,6.87.77,7,.15,0,.15,0,2.19,6.88,2.19,7h3.52c0,.09,1.12,6.71,1.12,6.81h1.35c0,.08,2.76,7.06,2.76,7.14s1.07,0,1.07,0,3.11,7,3.11,7.09,1.07,0,1.07,0,3.12,7,3.12,7.11h1.07c0,.09,3.09,7,3.09,7.05h1.06c0,.1,1.2,6.8,1.2,6.9s2.6,0,2.6,0,1.81,7,1.81,7.13,2.53,0,2.53,0,1.66,7,1.66,7.09h2.28s4,7.13,4,7.18h.83c0,.13,4.44,7.06,4.44,7.13s1,0,1,0,1.64,7.1,1.64,7.17,1.06,0,1.06,0,3.8,7.12,3.8,7.19H913c0,.08,3,6.92,3,7h1.06s1.35,7,1.35,7.1h2.53c0,.06,1.39,6.83,1.39,6.9H927c0,.07,1.45,7,1.45,7s2.14,0,2.14,0,2,7.08,2,7.15,1.06,0,1.06,0,3.05,6.89,3.05,7,1.06,0,1.06,0,3.07,6.94,3.07,7h1s2.24,7.08,2.24,7.15,3.67,0,3.67,0,1.27,6.73,1.27,6.82,1,0,1,0,3.74,6.85,3.74,6.93,2,0,2,0,1.4,6.81,1.4,6.89,1,0,1,0,3.16,7,3.16,7.16h1.05s1.38,7,1.38,7.06H968c0,.1.41,7.08.41,7.13h1.5c0,.05,2.71,7,2.71,7s1.56,0,1.56,0,4.32,6.72,4.32,6.83H981c0,.05,1.15,7.06,1.15,7.1h1.05c0,.07,3.21,7,3.21,7.14s1.47,0,1.47,0,2.74,6.81,2.74,6.92,2,0,2,0,2.85,6.91,2.85,7h1.32c0,.08.09,7,.09,7.1h3.27c0,.06,4.05,6.74,4.05,6.84s1.43,0,1.43,0,0,6.71,0,6.8,2.83,0,2.83,0,4.12,7,4.12,7.08h1.29c0,.07-.31,7.1-.31,7.17s1.9,0,1.9,0,3.84,6.86,3.84,6.93,2.73,0,2.73,0,1.22,7.09,1.22,7.18,1.87,0,1.87,0,.85,7.15.85,7.19,2.66,0,2.66,0,2.63,6.82,2.63,6.88,2.93,0,2.93,0,1.3,6.83,1.3,6.92,2.55,0,2.55,0,.87,6.88.87,7h3.67s-.21,6.78-.21,6.84,2.79,0,2.79,0,2.95,6.91,2.95,7h1c0,.11,3.93,6.84,3.93,6.91h.83s2.35,6.83,2.35,6.89h1c0,.06,4.53,6.78,4.53,6.83s.21,0,.21,0,1.06,7.13,1.06,7.18H1067c0,.06,0,7,0,7.07h4.22c0,.05,1.72,7.08,1.72,7.13h1s3.15,6.84,3.15,7h1s3.54,6.75,3.54,6.84h.58c0,.1,3.08,6.82,3.08,6.86s1,0,1,0,2,6.87,2,6.94h.55c0,.07,5.47,7.12,5.47,7.17h1.08c0,.08,2.62,7,2.62,7h1s3.68,6.91,3.68,7,.77,0,.77,0,3,7,3,7.09,1,0,1,0,3.27,7.08,3.27,7.15h1c0,.09,3.11,6.79,3.11,6.88h1c0,.07,1.16,6.83,1.16,6.87h1.71c0,.06,5.33,6.87,5.33,6.93h1.07c0,.08,2,7.06,2,7.1s3.22,0,3.22,0,1.66,6.82,1.66,6.91h1s1.84,6.76,1.84,6.8h3.19c0,.07,1.72,6.83,1.72,6.88h1c0,.1,3.13,6.88,3.13,6.94s1,0,1,0,4.88,7,4.88,7h.18c0,.07,3.08,7,3.08,7.09h2.27c0,.09-.52,6.81-.52,6.84h3.48c0,.1,2.42,7,2.42,7h1c0,.06,1.34,6.87,1.34,6.91s1.12,0,1.12,0,5,6.71,5,6.81h.1c0,.07,3.9,7,3.9,7.07h1c0,.08,3.13,6.83,3.13,6.93h1s2.31,7.07,2.31,7.15h2.57c0,.08,2,7.11,2,7.17h.81c0,.06,3.07,7,3.07,7.16h3.15s2.9,6.88,2.9,7h.92c0,.11,2.72,7,2.72,7.11h1.81c0,.11,3.55,7,3.55,7.06h1.34s1.63,6.89,1.63,6.93h1c0,.07,1.87,7.12,1.87,7.19h.85c0,.09,4.78,6.9,4.78,7h1c0,.09,2.67,7,2.67,7h.71s4,6.85,4,6.91h1c0,.06,2.6,7,2.6,7h2.16c0,.08,4.33,6.72,4.33,6.84h.18c0,.12,3.89,6.9,3.89,7s.87,0,.87,0,.1,6.78.1,6.83,2.66,0,2.66,0,3.79,6.77,3.79,6.87h1.85c0,.07,3,7,3,7h.15c0,.07,1.69,7,1.69,7.09h3.45s3.12,6.74,3.12,6.85.94,0,.94,0,1.76,6.92,1.76,7h1c0,.08,1.17,6.76,1.17,6.86h1.65c0,.07,4.45,6.91,4.45,7h1c0,.11,4.67,6.93,4.67,7s1,0,1,0,.86,6.83.86,6.88h3.67c0,.09-.18,6.91-.18,7h.73c0,.06,4,6.85,4,6.94h1.89c0,.08,5.11,6.89,5.11,7s.18,0,.18,0,1,6.89,1,7,.74,0,.74,0,2.62,7,2.62,7h4.1c0,.09,1.79,6.79,1.79,6.89h.77c0,.09,4,6.89,4,6.94s.53,0,.53,0,2.37,6.9,2.37,7,3.72,0,3.72,0,.68,7.1.68,7.14h2.11c0,.1,2.27,6.91,2.27,7h.55c0,.05,2.89,6.84,2.89,6.94h2.77s1.55,6.9,1.55,7h4c0,.07,1.56,7,1.56,7.13s1,0,1,0,3.18,6.74,3.18,6.85h.5c0,.07,3.73,7,3.73,7.14h2s1.24,6.8,1.24,6.86h.55c0,.06,4.18,6.93,4.18,7h2.52c0,.1,2.07,6.93,2.07,7h1c0,.11,3.1,6.78,3.1,6.84s1.86,0,1.86,0,2.38,7.05,2.38,7.12h1c0,.1,3,6.75,3,6.81s1,0,1,0,1.54,7,1.54,7,3.83,0,3.83,0,3.64,6.91,3.64,7h1.32c0,.07-.25,6.91-.25,7s3.53,0,3.53,0,4,7,4,7.06h1.17c0,.1,1.3,7.08,1.3,7.17s1,0,1,0,3.07,6.76,3.07,6.85h1c0,.09,1.66,6.85,1.66,6.92H1397c0,.07,3,7.1,3,7.16h1c0,.07,3.05,6.73,3.05,6.82h1s3.08,6.75,3.08,6.87h1c0,.06,7.17,7,7.17,7.13s3,0,3,0"/><path class="cls-4" d="M1501.09,146s4,0,4,0-14.28,6.86-14.28,7,14.26-.19,14.26,0-26.1,6.56-26.1,6.87,30.69-.31,30.69,0-39.85,6.69-39.85,7.06c0,.64,41.51-.28,41.51,0,0,.7-54.77,6.12-54.77,6.91,0,.5,60.83-.71,60.83,0S1447,180.3,1447,180.9c0,.95,70.81-.73,70.81,0,0,.95-82.76,6.43-82.76,6.91s86.36-1.09,86.36,0-98.08,6.13-98.08,6.9,100-.51,100,0c0,1.51-112.05,5.92-112.05,7.18s117.11-.63,117.11,0c0,1.62-125.51,5.69-125.51,6.81,0,1.43,128.74-1.71,128.74,0,0,.75-139.82,6.2-139.82,7.15,0,2.13,144.24-2,144.24,0,0,1.87-155.57,4.64-155.57,7,0,1.35,155.59-2.25,155.59,0,0,1-166.86,4.6-166.86,6.9,0,1.8,171.45-2.28,171.45,0,0,2-182.07,4.74-182.07,6.83s184-1.54,184,0c0,1.83-194.71,4.44-194.71,6.82,0,1,199.85-1.57,199.85,0,0,2.64-211.33,4.21-211.33,7s214.23-1.59,214.23,0c0,1.15-224.85,3.88-224.85,7.1,0,1.79,226.13-3.18,226.13,0s-239.76,4.37-239.76,7c0,2.9,243.74-1.33,243.74,0S1304,269,1304,271.58c0,3.82,257.32-3.22,257.32,0,0,2-270,3.09-270,6.84,0,2.86,272-2.06,272,0,0,2.77-281.37,4.34-281.37,7.11,0,3.43,282.94-2.14,282.94,0,0,1.65-295.69,3.09-295.69,6.84,0,4.43,301.13-4,301.13,0,0,3.56-311.8,3.22-311.8,7,0,2.26,312.21-3.06,312.21,0,0,4.35-321.83,3.23-321.83,6.93,0,4.18,327.54-2.86,327.54,0,0,4.73-342.18,2.36-342.18,6.91,0,1.91,342-4.94,342,0,0,3.42-353.17,2.21-353.17,7.11,0,4.45,358.91-3.87,358.91,0s-369.58,4.61-369.58,7.12c0,3,370.27-3.52,370.27,0,0,4.64-379.54,5-379.54,7.19,0,3.21,383.65-3.84,383.65,0,0,5.27-394.79,4.12-394.79,6.86,0,5.34,399.42-3.74,399.42,0,0,5.07-409.65,3.26-409.65,6.95,0,3.93,413.5-2.44,413.5,0,0,3.81-425.17,1.68-425.17,7,0,5.48,428.41-5.26,428.41,0,0,2.51-441.8,2.84-441.8,6.87,0,3.86,442.87-6.53,442.87,0,0,3.58-450.7,2.6-450.7,6.88,0,2.7,455-2.33,455,0,0,4.43-466.46,2-466.46,7,0,5.74,469.9-2.71,469.9,0,0,3.92-483.66,1.25-483.66,7.13,0,6.07,485.9-4,485.9,0s-493.8-.11-493.8,7.08c0,4.66,497.27-6.38,497.27,0,0,2.6-508.7-.14-508.7,6.86,0,7.2,513.18-2.84,513.18,0,0,7.85-525.23,2.86-525.23,6.86,0,3.21,526.76-4.92,526.76,0,0,6.48-539.77,1.66-539.77,7,0,5.57,543.32-6.1,543.32,0,0,3-550.8,3.8-550.8,7,0,6.63,552.91-4,552.91,0,0,3.65-565.34,3.66-565.34,7,0,7.85,569.63-6.49,569.63,0,0,6-582.66,3.61-582.66,6.91,0,7.09,583.34-4.95,583.34,0,0,8.67-593.19-1.08-593.19,7.12,0,4.33,598.38-4.39,598.38,0,0,3.36-608.08-1.08-608.08,6.83,0,4.72,610.11-3.59,610.11,0,0,3.82-622.72-1.86-622.72,6.83,0,4.76,625.71-5.26,625.71,0,0,7.35-637.09,1.9-637.09,7.2s642-3.4,642,0c0,5.71-652.21-1.77-652.21,6.82,0,6.78,652.73-4.53,652.73,0,0,7.55-662.59,2.25-662.59,7.09,0,9.43,667.35-5.52,667.35,0,0,5.74-681.33-3-681.33,7.2,0,8.11,686.37-7.7,686.37,0,0,5.3-697.22-.67-697.22,7.1,0,6,697.55-10.42,697.55,0,0,9.62-709.87,3.31-709.87,7.19,0,6.93,712.75-7,712.75,0,0,8.38-722.54,3.13-722.54,7.06s726.3-4.88,726.3,0c0,4.5-739.21-.63-739.21,7.07,0,4.5,744.29-9.71,744.29,0,0,4.48-755.19-4.38-755.19,6.81,0,10.45,756.23-7.16,756.23,0,0,7-765.12-.78-765.12,6.83,0,6.56,767.9-8.36,767.9,0,0,7.66-777.9.2-777.9,7,0,7.9,784.05-11.43,784.05,0,0,4.69-796.89.12-796.89,7.17,0,11.23,800.88-11.21,800.88,0,0,8.13-798-4.17-798,7,0,8.2,799.14-10.74,799.14,0,0,9.55-795.66,2.74-795.66,7,0,10.5,798.88-6.11,798.88,0,0,4.48-792.91-.2-792.91,7.15,0,4.83,794.27-7,794.27,0,0,10.26-790.66-3.39-790.66,7.11,0,10.07,794-6.56,794,0,0,5.39-791.61-4.7-791.61,7,0,5.78,797.34-4.43,797.34,0,0,9.09-791.53,1.79-791.53,7s793.14-5.18,793.14,0c0,8.75-787.88-4.37-787.88,7.06s793.43-7.88,793.43,0c0,8.41-791,2.95-791,7.12,0,6.09,792.08-10.45,792.08,0s-786.86-.17-786.86,7.18c0,7.67,792.51-6.47,792.51,0,0,7.44-788.15.25-788.15,6.93,0,9.4,788-6.94,788,0,0,11.05-783.16,2.78-783.16,7,0,11.4,789.7-6.44,789.7,0,0,5.43-786.22-2-786.22,7.16,0,10.51,788.1-8.36,788.1,0,0,4.64-780,.07-780,6.89,0,7.36,781-6.48,781,0,0,10.89-778.7-2.56-778.7,7,0,9.23,785.43-10.58,785.43,0,0,10.24-780.85.31-780.85,7,0,9,782.95-5,782.95,0,0,11.51-778,2.59-778,6.94,0,11.32,780.59-10,780.59,0,0,8.65-778.2-3.93-778.2,7.09,0,6.27,782.05-9,782.05,0,0,8.09-775.82-2.22-775.82,7.17,0,4.84,780.3-6.48,780.3,0,0,10.9-775.43,1-775.43,6.8,0,6,776.68-7.54,776.68,0,0,5.73-772.56.11-772.56,7.11,0,5.82,777.51-10.44,777.51,0,0,4-771.25,1.56-771.25,7.2,0,6.37,774.45-11.33,774.45,0,0,6.65-770.07,1.73-770.07,7,0,5.67,770.34-4.18,770.34,0,0,11-765.33-3-765.33,7,0,7.29,769-10.93,769,0,0,11.49-768.39,1.18-768.39,6.81,0,8,772.19-5.83,772.19,0,0,6.75-764.87,0-764.87,6.85,0,10.39,770.12-11.51,770.12,0,0,8.44-768.43,2.48-768.43,6.83,0,3.9,769.61-10.2,769.61,0,0,4-763,.11-763,7.18,0,8.48,766.34-8.39,766.34,0,0,11.12-761.79-2.82-761.79,7,0,5,766.3-6.48,766.3,0,0,9-761,1-761,6.91,0,11.3,761.88-11.27,761.88,0,0,7.5-760.35-2.15-760.35,6.92,0,6.32,764.58-9,764.58,0,0,4.42-757-3.8-757,7.18,0,5.92,762.51-8.26,762.51,0,0,7.82-757.62-.86-757.62,6.94,0,10.38,758.39-5.36,758.39,0,0,8.87-754.08.77-754.08,7.1,0,10.64,757.6-6.56,757.6,0s-752.9-3.31-752.9,7.12c0,6.31,757.36-8.6,757.36,0s-753.53-1.94-753.53,7c0,6.1,754.34-4.16,754.34,0,0,10.49-749.25,1.43-749.25,7,0,9.05,754.46-8.84,754.46,0,0,10.21-750,.2-750,7.13,0,9.24,753-7.95,753,0,0,4.91-751.2,2.05-751.2,6.92,0,6.45,753.45-10.13,753.45,0,0,7.94-749.57-1.76-749.57,6.85,0,6.74,755.25-6.45,755.25,0,0,10.75-749.79,2.34-749.79,7.19,0,9.57,750.32-9.83,750.32,0,0,11-744-1.25-744,6.92,0,9.87,750.62-7.57,750.62,0,0,5.47-746.29-3.36-746.29,7,0,5.35,746.27-10,746.27,0,0,7.23-741.13.79-741.13,7.18,0,10,744.3-11.21,744.3,0,0,3.9-742.6-.25-742.6,7.19,0,9.16,746.38-9.77,746.38,0,0,8.25-741.34,2.58-741.34,6.93,0,6.7,746.1-10.3,746.1,0,0,5.77-738.69,2.93-738.69,7,0,4.43,741.91-8.92,741.91,0,0,10.08-738.27,1.29-738.27,7.11,0,10.1,743.41-7.77,743.41,0,0,7.61-739.72-3-739.72,7.13,0,8.7,741-8.48,741,0,0,6.82-734.74,2-734.74,7.13,0,7.53,737.82-8.47,737.82,0,0,9.7-736,2.53-736,7,0,10.13,739-6.7,739,0s-734.86,0-734.86,6.9c0,7.43,737.87-7.14,737.87,0,0,10.62-732.67-2-732.67,7.2,0,5.78,738.36-7.24,738.36,0,0,7.58-733.24-.48-733.24,6.86,0,3.95,736.12-9.39,736.12,0s-732-2.18-732,7.11c0,4.27,735.06-9.22,735.06,0,0,6.91-730.85,1.8-730.85,6.93,0,6.83,733.16-4.11,733.16,0,0,7.65-727-2.11-727,7.19,0,3.83,730-5,730,0,0,7.44-727.78,2.94-727.78,6.82,0,9.89,731.35-3.78,731.35,0,0,5.72-725.66.63-725.66,6.86,0,6.63,729.88-5.53,729.88,0,0,5.85-725.14-2.64-725.14,7.14,0,7.55,728.27-5.72,728.27,0,0,7.53-723.86-3.61-723.86,7.1,0,3.83,728.87-9.75,728.87,0,0,9.41-724.15-2.45-724.15,7.08,0,10.32,727.36-5.33,727.36,0,0,9.6-722.63,1.85-722.63,7,0,9.9,726.71-7.72,726.71,0,0,6.2-724-2.82-724,7.15,0,9.75,725.3-9.33,725.3,0,0,6.82-720.59.3-720.59,6.94,0,8.63,727.53-8.75,727.53,0,0,7.57-722.44.18-722.44,7,0,6,725.85-6.58,725.85,0,0,9.25-718.9,2.79-718.9,7,0,7.49,721.4-7.56,721.4,0,0,7.14-718.12-.8-718.12,7.07,0,7.38,720.45-10.07,720.45,0s-714.88-2.58-714.88,6.81c0,7.31,720.09-7.44,720.09,0,0,4.33-718.13,2.78-718.13,7.18,0,10.78,720.37-9.61,720.37,0,0,8.55-713.06-2.59-713.06,7,0,4.56,718.51-9.14,718.51,0,0,9.32-716.84,3-716.84,7,0,6.85,719.51-9.69,719.51,0,0,7.4-714.73,1.71-714.73,7,0,4.78,717.68-7.56,717.68,0,0,10.69-714.28-1.54-714.28,6.85,0,5.21,718-6.94,718,0,0,6-710.93-.38-710.93,6.92,0,4.45,714.63-6.77,714.63,0,0,5.85-712.92-2.37-712.92,7.13,0,5.52,719.3-4,719.3,0,0,9.36-712.23-1.45-712.23,7,0,6.29,715.34-4.93,715.34,0,0,7-711.45,1.48-711.45,7,0,8.56,715.32-3.86,715.32,0,0,8.68-709.36,3.12-709.36,6.84,0,8.82,716-7.44,716,0s-715.15-1.65-715.15,7c0,5.39,720-8.8,720,0,0,4.13-715.06-.11-715.06,6.83,0,8.25,715.35-9.09,715.35,0,0,9.28-708.36,2.72-708.36,7.16,0,4.22,697.7-10,697.7,0,0,4.71-692.55,1-692.55,6.81,0,7.78,685.63-5.09,685.63,0,0,6.6-682.79-1.56-682.79,6.93,0,10.11,676.2-6.32,676.2,0,0,5.43-670,1.05-670,6.85,0,5.6,661.55-4.88,661.55,0,0,3.36-658.69-1.49-658.69,6.81,0,3.85,649.92-5.41,649.92,0,0,8.4-644.91-1.83-644.91,7,0,6.51,639-5.4,639,0,0,4.08-635.36-1.75-635.36,6.9,0,4.79,627.13-4.81,627.13,0,0,7.42-621.64,1.53-621.64,6.9,0,3.51,611-4,611,0,0,6.15-607.08,0-607.08,6.85s599.76-7.4,599.76,0c0,4.64-597.22.81-597.22,7,0,5.6,591.16-7.82,591.16,0,0,3.93-584.84,2.1-584.84,7,0,8.14,575.06-8.45,575.06,0,0,8.29-572.57-1.37-572.57,6.85,0,3.62,562.78-3.42,562.78,0,0,4.7-555.95,3.19-555.95,7,0,5.27,550.29-4.22,550.29,0,0,4-548.58,2.41-548.58,6.9,0,3.46,540.76-3.55,540.76,0,0,3.92-533.33,2.32-533.33,6.92,0,4.31,524.79-5.61,524.79,0,0,3.44-520.67,0-520.67,6.82s514.05-5.77,514.05,0c0,3.6-509.79,2-509.79,6.81,0,6.73,501.9-7.31,501.9,0,0,4.85-497.46.54-497.46,7.17,0,2.81,487.22-5.29,487.22,0,0,4-482.85,4-482.85,7,0,3.28,476.34-3.59,476.34,0,0,3.42-470.93,4.42-470.93,7,0,3.73,463.34-6.13,463.34,0,0,3.2-460.74.47-460.74,6.93,0,3.13,450.25-3.94,450.25,0,0,6.34-445.31,1.6-445.31,6.93,0,5,438.47-6.55,438.47,0,0,4.09-435.28,2.72-435.28,6.81,0,2.92,428.3-5.16,428.3,0,0,4.64-424.08,3.4-424.08,6.94,0,5,414.37-6.07,414.37,0,0,4-408.79,3.83-408.79,6.82,0,5.09,402.34-4.91,402.34,0,0,5.24-396.93,3.8-396.93,7,0,2.63,386.12-4.18,386.12,0,0,3.78-380.88,2.87-380.88,7,0,2.88,372.76-4.62,372.76,0,0,3.51-368.86,2.82-368.86,6.81,0,4.77,362.15-5.27,362.15,0,0,4-358.25,4.18-358.25,7,0,2.19,348.91-5.1,348.91,0s-343.06,3.19-343.06,6.93c0,1.71,336.21-4.51,336.21,0,0,2.82-334.49,4.53-334.49,6.81,0,2,326.53-3,326.53,0,0,4.79-319.7,3.92-319.7,6.88,0,2.31,311.55-1.72,311.55,0s-308.43,2.74-308.43,7c0,2.7,302.17-4.08,302.17,0,0,2.56-298.16,4-298.16,7.11s288.66-2,288.66,0c0,3.25-282.86,3.39-282.86,6.83,0,3,276.62-3.33,276.62,0,0,4.08-273.19,3.41-273.19,6.92,0,3,262.87-3.8,262.87,0,0,1.84-256.61,5.6-256.61,7.14,0,1.7,249.8-3,249.8,0,0,2.51-246,5.31-246,6.84,0,2.29,238.67-3.4,238.67,0,0,1.75-233.54,3.79-233.54,7.07,0,2.68,223.62-2.32,223.62,0,0,1.52-220.88,5.18-220.88,7s212.8-1.65,212.8,0c0,2.4-208.3,5.7-208.3,7.19,0,1.08,200.64-2.06,200.64,0,0,1.47-194.24,5.8-194.24,6.94,0,2.6,184.46-1.31,184.46,0,0,1-181.6,5.83-181.6,7,0,2.07,177-1.47,177,0,0,2.4-174,5-174,6.93,0,1,163.16-2.14,163.16,0,0,1.14-157.42,5.24-157.42,6.81,0,1.4,150.68-1.27,150.68,0s-144.46,5.48-144.46,7.07c0,1.82,136.37-1.34,136.37,0,0,1.81-132.29,5.73-132.29,6.84,0,.82,122.35-1.13,122.35,0,0,.7-117.64,6.41-117.64,7.07,0,1.18,109.8-1.13,109.8,0,0,.74-106.44,5.81-106.44,6.83,0,.59,98.84-1.21,98.84,0,0,.79-92.87,6.18-92.87,6.82,0,.94,86.56-1.25,86.56,0,0,1-85.63,6.27-85.63,7.06s76.3-.71,76.3,0c0,.88-68.12,6.51-68.12,7.19s61.72-.49,61.72,0-57.58,6.44-57.58,6.8c0,.53,49.74-.69,49.74,0,0,.4-48.63,6.47-48.63,7s38.67-.44,38.67,0-31.43,6.59-31.43,7c0,.12,25.24-.17,25.24,0s-22.27,7-22.27,7.1,13.62-.1,13.62,0"/><path class="cls-2" d="M1503.45,146.68s1,0,1,0,.86,7,.86,7.08,4.1,0,4.1,0,.89,6.84.89,6.9h1.23c0,.06,1.24,7,1.24,7.14s1,0,1,0,.72,7.1.72,7.19,1.43,0,1.43,0,3,6.8,3,6.86,1,0,1,0,2.06,6.87,2.06,7,1,0,1,0,1.36,6.89,1.36,7,3.73,0,3.73,0-1.8,6.79-1.8,6.86,1.35,0,1.35,0,4.14,7,4.14,7,2.07,0,2.07,0-.07,7.07-.07,7.13,3,0,3,0,.27,6.89.27,6.94,3.39,0,3.39,0,1.18,7,1.18,7.05h1.6c0,.1.6,7,.6,7.11s1,0,1,0,2.09,6.72,2.09,6.81.64,0,.64,0,3.26,7.1,3.26,7.19,1.28,0,1.28,0,2.07,6.79,2.07,6.87,1.53,0,1.53,0-.91,7-.91,7.1h2.37c0,.08,1.2,7,1.2,7.07s3.28,0,3.28,0-1,6.8-1,6.84H1562c0,.09,2.79,6.92,2.79,7s1.51,0,1.51,0,2.61,6.9,2.61,7,1,0,1,0,.47,6.87.47,6.95h3.81c0,.06.85,6.78.85,6.82h1c0,.07,2.15,7.05,2.15,7.11s1,0,1,0,.89,6.94.89,7h3.47c0,.05,1.57,6.78,1.57,6.82h.69c0,.09,1,6.85,1,6.94h1.66c0,.07.31,7.08.31,7.13h3.87c0,.08,2.33,6.73,2.33,6.83s.9,0,.9,0,1.08,7.12,1.08,7.18,1,0,1,0,2.9,7.09,2.9,7.13,2,0,2,0-.54,6.93-.54,7h2.45c0,.05,1.67,6.92,1.67,7h1c0,.1,1.28,7,1.28,7h0c0,.11,4.34,7.12,4.34,7.18s1.17,0,1.17,0,1.77,7,1.77,7.06h.54c0,.11,1.51,7,1.51,7.11h1.64c0,.08,2,6.75,2,6.83h3.52c0,.06-.24,7-.24,7s2.14,0,2.14,0,1.42,6.84,1.42,6.91h1c0,.09,1.08,6.83,1.08,6.92s.38,0,.38,0,4.89,6.77,4.89,6.84.4,0,.4,0,1.64,7,1.64,7.1,1,0,1,0,2.54,7,2.54,7.14h1.27c0,.07,1.83,6.81,1.83,6.91s2.33,0,2.33,0-.57,7.06-.57,7.15,2.56,0,2.56,0,1.84,7.12,1.84,7.19h1c0,.05,2.73,6.74,2.73,6.81h.78c0,.1,1.72,6.91,1.72,7h1c0,.06.24,7.11.24,7.18h2.24c0,.08,2.91,6.93,2.91,7s1,0,1,0,3.06,7,3.06,7.07h1.47c0,.09.76,6.8.76,6.85h1c0,.06,2.71,6.94,2.71,7h2.45c0,.1-.86,6.82-.86,6.89s3,0,3,0,1.11,7.06,1.11,7.13,2.63,0,2.63,0,.64,7,.64,7.08h1c0,.1,2.28,6.91,2.28,7h1.35c0,.07,1.91,7,1.91,7.11h1s.37,6.72.37,6.81,1,0,1,0,2.76,6.89,2.76,7a3.23,3.23,0,0,0,.44,0c0,.05,4.68,6.74,4.68,6.82h.89c0,.08.42,7.09.42,7.19h2.22c0,.07,2,6.86,2,7h1c0,.11,2.23,7.09,2.23,7.15h1c0,.1.93,6.86.93,6.94h1.93s2.76,6.76,2.76,6.82a3.84,3.84,0,0,0,.48,0c0,.06,2.13,7.13,2.13,7.18s2.07,0,2.07,0,2.45,6.9,2.45,7h.06c0,.1.29,6.75.29,6.85h4.07c0,.1.33,7,.33,7.05s2.42,0,2.42,0-.12,6.95-.12,7h2.45s3.31,7,3.31,7.07,1,0,1,0,2.9,7,2.9,7.08h.55c0,.09,1.06,6.74,1.06,6.82h1c0,.07,2.26,7,2.26,7.15h1c0,.09,2,6.78,2,6.86h.85s1,7,1,7.11,2.26,0,2.26,0,1.42,7,1.42,7h4c0,.07,2.43,7,2.43,7.14h.15c0,.09-.33,7-.33,7.08h2.36c0,.06,2.5,7.06,2.5,7.13s1.3,0,1.3,0,0,7,0,7h3.25s.09,6.92.09,7,4,0,4,0,.57,6.9.57,7,1.78,0,1.78,0,2.11,6.78,2.11,6.82h.31c0,.05,2.8,6.84,2.8,6.94h1s.57,6.86.57,6.94h1.55c0,.1,3.91,6.94,3.91,7s.58,0,.58,0,1.84,7.09,1.84,7.18,1.71,0,1.71,0,2,7,2,7h1c0,.05,2.73,6.74,2.73,6.84h2.36c0,.06-.78,6.79-.78,6.86h3c0,.09.77,6.78.77,6.88h3.22s2.17,6.72,2.17,6.8h1.15s-.13,6.85-.13,7h.46c0,.09,4.47,6.75,4.47,6.8h.77c0,.06,1.33,7.06,1.33,7.17h1.83c0,.1,2.56,6.85,2.56,6.91h.74s1.76,7.06,1.76,7.13h1c0,.09,2.36,7.06,2.36,7.13h1c0,.08,4.12,6.78,4.12,6.88h.6c0,.11,2.71,6.91,2.71,7h.21c0,.1,1.2,6.73,1.2,6.83h1s1,6.93,1,7H1839c0,.11,4.84,6.92,4.84,7a1.31,1.31,0,0,0,.28,0c0,.08,1.18,6.83,1.18,6.9s1,0,1,0,2.44,7.14,2.44,7.18h1c0,.07,1.23,7.08,1.23,7.17h1.08c0,.1,1.71,7,1.71,7.1h2.32c0,.09,3,7,3,7h1s2.4,7,2.4,7,1,0,1,0,2.45,7.12,2.45,7.19,1.17,0,1.17,0,2.74,6.83,2.74,6.88,1.24,0,1.24,0,.76,6.91.76,7,3.63,0,3.63,0,.7,6.74.7,6.83,1,0,1,0,.51,7,.51,7.06h3.27c0,.09,1.46,7,1.46,7h.89c0,.11,3.31,6.79,3.31,6.88h1s2.5,6.93,2.5,7h1c0,.1,2.25,7,2.25,7.14s.58,0,.58,0,1.84,7,1.84,7.1h4.5c0,.09-.46,6.91-.46,7h1.09c0,.08,3.38,7,3.38,7.15h2.88c0,.1,1.2,7,1.2,7s1.16,0,1.16,0,1.73,7.12,1.73,7.18h1.11c0,.12,4.12,6.79,4.12,6.89h.51s1.6,6.8,1.6,6.85h1.13c0,.07,2.91,7.14,2.91,7.18s.1,0,.1,0,4.72,7.12,4.72,7.18h1s3.06,7,3.06,7.1h.77c0,.08,2.09,6.78,2.09,6.85h1c0,.07,4.45,6.77,4.45,6.81s2.3,0,2.3,0,3.3,6.73,3.3,6.8h.5s2.83,7.08,2.83,7.13,2,0,2,0-2.58,6.73-2.58,6.83,2.79,0,2.79,0-11.5,6.72-11.5,6.88,1.58,0,1.58,0-9.14,6.81-9.14,6.88,4.61,0,4.61,0-11.44,6.77-11.44,6.94c0,0,3,0,3,0,0,.2-12.11,6.82-12.11,6.9s3.85,0,3.85,0c0,.17-10.8,6.79-10.8,6.88s2.4,0,2.4,0-11.9,7-11.9,7.16,1.46,0,1.46,0-7.1,7-7.1,7.08.67,0,.67,0-8.62,6.92-8.62,7h1.79c0,.07-12.22,7-12.22,7.08h4.44c0,.22-13.38,6.92-13.38,7.06s3,0,3,0c0,.17-9.84,6.74-9.84,6.87s.59,0,.59,0-7.79,6.67-7.79,6.81,1.18,0,1.18,0-9.1,6.88-9.1,7,1.44,0,1.44,0-9.69,7-9.69,7.13H1838c0,.11-11,6.62-11,6.81h1.93c0,.07-7.76,7.08-7.76,7.17s1.4,0,1.4,0-8.71,7-8.71,7.15.34,0,.34,0-11.92,6.92-11.92,7.07h4.56c0,.14-11,6.9-11,7s1.45,0,1.45,0-11.34,7.06-11.34,7.16,3.73,0,3.73,0-9.66,7-9.66,7h.65c0,.14-10.29,6.64-10.29,6.81,0,0,1.12,0,1.12,0s-7.43,6.83-7.43,7,1.11,0,1.11,0-10.08,6.86-10.08,7h2.35c0,.08-10.17,6.84-10.17,7s1.46,0,1.46,0-9.68,6.93-9.68,7.11c0,0,1.46,0,1.46,0s-11.38,6.93-11.38,7,2.5,0,2.5,0-10.11,7-10.11,7h3.42c0,.1-9.62,6.77-9.62,6.9s.88,0,.88,0c0,.18-10.51,6.88-10.51,7s3.35,0,3.35,0-8.9,6.83-8.9,7,1,0,1,0c0,.18-12.2,6.81-12.2,6.88s4.51,0,4.51,0-12.64,6.71-12.64,6.9c0,0,3.22,0,3.22,0s-11,7-11,7.08,1.08,0,1.08,0-8.2,6.79-8.2,6.93,1.32,0,1.32,0-9.81,7-9.81,7.11H1660c0,.12-10,7-10,7.17s1.47,0,1.47,0-9.44,6.88-9.44,7,1,0,1,0-8.77,7-8.77,7,1.85,0,1.85,0-10.28,6.78-10.28,6.9h1.47c0,.06-8.94,7-8.94,7.19s1.91,0,1.91,0-10.76,6.73-10.76,6.91c0,0,1.47,0,1.47,0s-9.88,7-9.88,7.18.27,0,.27,0-7.85,7-7.85,7.17,1.88,0,1.88,0-9.68,7-9.68,7.15,2.06,0,2.06,0-11.35,7-11.35,7.08,1.48,0,1.48,0c0,.18-10.48,6.86-10.48,7,0,0,1.95,0,1.95,0s-9.92,6.78-9.92,6.92h4.29c0,.13-11.26,7-11.26,7.14s2.8,0,2.8,0-11.42,6.67-11.42,6.85h3.33c0,.12-9.87,6.83-9.87,7h2.14c0,.07-12.37,6.86-12.37,7s2.67,0,2.67,0-11.81,6.77-11.81,6.91,2.8,0,2.8,0c0,.19-10.77,6.77-10.77,6.84s4.43,0,4.43,0-8.79,7-8.79,7.08H1507c0,.18-12.74,6.7-12.74,6.82s2.84,0,2.84,0"/><path class="cls-2" d="M1501.28,145.29s4,0,4,0-14.57,6.85-14.57,7,1.76,0,1.76,0-13.34,6.7-13.34,6.87,2.31,0,2.31,0-12.84,6.92-12.84,7.05,1.76,0,1.76,0c0,.2-13.66,6.7-13.66,6.92,0,0,4.09,0,4.09,0s-14.37,6.92-14.37,7.05,1.77,0,1.77,0-12.94,6.83-12.94,6.91,1.27,0,1.27,0-13,6.79-13,6.91h.92c0,.2-12.93,7-12.93,7.17s3.41,0,3.41,0c0,.18-11.81,6.7-11.81,6.82s1.19,0,1.19,0-12.27,7-12.27,7.14,2.18,0,2.18,0c0,.2-14.33,6.72-14.33,7,0,0,1.77,0,1.77,0s-12.22,6.7-12.22,6.89c0,0,1.23,0,1.23,0s-12.58,6.67-12.58,6.84,1.78,0,1.78,0-11.76,6.65-11.76,6.81H1350c0,.19-13.37,6.81-13.37,7,0,0,2,0,2,0s-13.76,6.87-13.76,7.1c0,0,1.77,0,1.77,0,0,.2-14.28,6.79-14.28,7s2.94,0,2.94,0-11.13,7-11.13,7.16,2,0,2,0-14.67,6.62-14.67,6.85c0,0,2.71,0,2.71,0s-13.88,7-13.88,7.11,1.78,0,1.78,0-12.74,6.65-12.74,6.84c0,0,3.47,0,3.47,0s-14.15,6.79-14.15,7c0,0,.34,0,.34,0,0,.17-10,6.8-10,6.94s1.56,0,1.56,0c0,.24-16.2,6.67-16.2,6.9,0,0,1.91,0,1.91,0s-13.14,6.91-13.14,7.12c0,0,4.4,0,4.4,0s-15.07,7-15.07,7.12,1.27,0,1.27,0-10.54,7.11-10.54,7.19,0,0,0,0-11.16,6.76-11.16,6.85,1.83,0,1.83,0c0,.18-12.06,6.83-12.06,6.95s1.76,0,1.76,0-13.42,6.78-13.42,7c0,0,2.48,0,2.48,0s-15.87,6.71-15.87,6.87c0,0,3,0,3,0s-10.8,6.75-10.8,6.88h1.09c0,.13-12.55,6.84-12.55,7s1.74,0,1.74,0-15.5,6.92-15.5,7.13c0,0,3.22,0,3.22,0s-11.12,6.89-11.12,7.08c0,0,.17,0,.17,0s-11.59,6.67-11.59,6.85c0,0,2.1,0,2.1,0,0,.24-14.16,6.75-14.16,6.87s1.71,0,1.71,0c0,.19-14.72,6.81-14.72,7s4.06,0,4.06,0-13.39,6.86-13.39,6.94,1.8,0,1.8,0-12.38,7-12.38,7.05,1.86,0,1.86,0c0,.17-14.89,6.81-14.89,6.91s1.49,0,1.49,0c0,.19-11.33,6.93-11.33,7.11,0,0,2,0,2,0s-12.86,6.65-12.86,6.84h1.8c0,.09-13.27,6.62-13.27,6.83,0,0,1.48,0,1.48,0,0,.17-12.86,7.07-12.86,7.19s3.07,0,3.07,0-13.32,6.63-13.32,6.83c0,0,1.81,0,1.81,0s-11.66,7-11.66,7.09.07,0,.07,0-14,7-14,7.2c0,0,4.4,0,4.4,0S958,487.22,958,487.41c0,0,1.1,0,1.1,0,0,.2-13.41,7.1-13.41,7.18s1.63,0,1.63,0c0,.16-11.43,7-11.43,7.07s.76,0,.76,0S923,508.57,923,508.73c0,0,4.32,0,4.32,0s-15.22,6.56-15.22,6.81c0,0,2.37,0,2.37,0s-11.26,6.69-11.26,6.82.1,0,.1,0-10.1,6.89-10.1,7,2,0,2,0-14.81,7-14.81,7.17,4.15,0,4.15,0"/></g><g id="main"><path class="cls-2" d="M1559.88,1037.58c0,.15,15.18-.16,15.18,0s-31.89,6.77-31.89,6.93c0,.4,49.71-.4,49.71,0s-62.32,5.93-62.32,6.82c0,.57,68.31-1,68.31,0,0,.46-81.36,6.39-81.36,7.1,0,.51,82-.92,82,0s-98.29,6.32-98.29,7.15c0,1.19,96.93-1.33,96.93,0,0,.89-111.33,6-111.33,7.13,0,.8,104.59-1.24,104.59,0,0,.68-118.23,6-118.23,6.93,0,1.47,113.88-1.22,113.88,0,0,1.06-125.8,6-125.8,6.8s119.43-1.44,119.43,0c0,.83-133.4,5.73-133.4,6.83,0,1.35,125.71-.88,125.71,0,0,1.43-141.5,6.18-141.5,6.92,0,1.71,133-1.2,133,0,0,1.65-146.15,5.8-146.15,7,0,1.43,141.41-1.09,141.41,0,0,1.41-156.71,5.17-156.71,7.06,0,2.11,146.33-1.93,146.33,0s-162.33,5.53-162.33,6.83c0,.79,152.81-1.76,152.81,0,0,2-169.67,5.17-169.67,7.06s158-.87,158,0c0,1.7-171.62,5.62-171.62,6.83,0,2.09,161.24-2.37,161.24,0,0,2.61-178.33,5.42-178.33,6.95,0,1.69,166.46-1.86,166.46,0"/><path class="cls-2" d="M1568.78,854.46c0,.1,9.52-.12,9.52,0s-23.2,6.69-23.2,6.84c0,.38,33.59-.42,33.59,0,0,.25-46.58,6.89-46.58,7.19,0,.51,51.83-.58,51.83,0,0,.79-58.69,6.27-58.69,7s62.7-.33,62.7,0c0,.56-73.49,6.2-73.49,6.88,0,.87,74.55-.43,74.55,0,0,.6-83.93,6-83.93,6.93,0,.61,86.44-.84,86.44,0s-94.4,6-94.4,6.86,92-1.33,92,0c0,1-98.85,6.14-98.85,7.11s95.77-1,95.77,0c0,1.45-103.72,6.23-103.72,7.14,0,1.18,101.63-1.08,101.63,0,0,1.3-111.42,6.21-111.42,7.13,0,1.36,108.33-1.12,108.33,0,0,.89-117.65,6.32-117.65,7s110.84-.59,110.84,0c0,1.4-119.88,5.92-119.88,7.07s118.3-.94,118.3,0c0,1.87-125.57,5.86-125.57,7.07,0,1.75,118-.63,118,0,0,1.18-127.49,5.76-127.49,7.19,0,1.18,121.33-.9,121.33,0,0,1.46-130.33,5.91-130.33,6.84s125.81-1.63,125.81,0c0,1.83-131.5,5.83-131.5,7.16,0,1.8,126.12-.77,126.12,0s-136.15,5.06-136.15,6.86,127.92-1.32,127.92,0c0,1.53-136.76,5.47-136.76,7.08,0,1.38,129-.84,129,0s-137.45,5.31-137.45,7.18c0,.95,127.63-.71,127.63,0,0,1.93-137.52,5-137.52,7,0,1.59,132.51-1.89,132.51,0,0,2.07-143.09,5.06-143.09,7.19,0,.72,135.24-.78,135.24,0,0,2.11-145.46,5.21-145.46,6.95s134.39-1,134.39,0-142.45,5.31-142.45,7c0,.83,135.38-.88,135.38,0s-146.69,5.38-146.69,6.86c0,2,138-1.1,138,0,0,.83-155.94,5.52-155.94,7,0,1.25,147.22-1.46,147.22,0"/><path class="cls-2" d="M1505.67,693.54c0,.19,15.82-.22,15.82,0,0,.44-35.54,6.88-35.54,7.16,0,.63,44.12-.31,44.12,0,0,.83-58.36,6.66-58.36,7.16,0,.71,59.21-.53,59.21,0,0,.76-69.83,6.47-69.83,6.94,0,.66,72.57-.7,72.57,0s-84.6,6.14-84.6,7,87.31-.64,87.31,0-98.48,6-98.48,7.12c0,.69,97.46-.78,97.46,0,0,1.25-106.42,6-106.42,7.2,0,.8,105.54-.87,105.54,0,0,1.41-112.86,5.5-112.86,7,0,.72,109.05-1,109.05,0,0,1.41-120.65,5.94-120.65,7.05,0,1.45,120.47-1.64,120.47,0s-126.07,5.53-126.07,6.93,120.94-1.43,120.94,0c0,1.78-128.76,5.3-128.76,7,0,1.44,124.42-1.62,124.42,0,0,1.93-133.68,6.12-133.68,7.09,0,.77,133.59-1.74,133.59,0,0,1.22-142,5.3-142,6.91,0,1.93,137.81-1.24,137.81,0,0,1-146.13,5.27-146.13,6.91,0,1.07,138.82-1.29,138.82,0,0,1.83-146.13,5.8-146.13,6.84,0,1.82,144.8-1.68,144.8,0,0,2-150.42,5.23-150.42,7,0,1.27,145.36-1.64,145.36,0,0,1.21-154.16,6-154.16,7.09,0,1.38,149.12-2.2,149.12,0s-156.46,5.19-156.46,6.94c0,1.5,149.36-2.21,149.36,0,0,1.75-157,4.53-157,6.88,0,1.61,150.37-1,150.37,0,0,1.48-155.42,5.07-155.42,7,0,2.28,150.27-1.31,150.27,0,0,2.07-157,5-157,6.89,0,1,152.87-2.17,152.87,0,0,1-160.09,5.36-160.09,7.19s150.7-1.08,150.7,0-160.35,5.09-160.35,7c0,1,153.82-1.52,153.82,0,0,1.71-160.45,6.11-160.45,7,0,1.85,155.42-2.29,155.42,0,0,1.56-161,4.61-161,6.81,0,1.84,154-2.32,154,0,0,2-162.67,6.13-162.67,7.06s156.75-1.56,156.75,0-161.91,5.12-161.91,7.17c0,1.06,153.32-1.18,153.32,0S1273.72,882,1273.72,883c0,2.21,151.69-.88,151.69,0s-160.36,5.93-160.36,6.84c0,1.44,155.32-1,155.32,0,0,1.27-162.39,5.24-162.39,7.06s154-2,154,0c0,1.7-158.33,6-158.33,6.86,0,1.14,148.4-1.83,148.4,0,0,1.14-155.51,6.07-155.51,7.08,0,1.79,149-2,149,0s-153.75,6.14-153.75,7c0,2.18,145.3-1.73,145.3,0,0,1.17-153.91,5.77-153.91,6.88,0,.78,148.09-.87,148.09,0"/><path class="cls-2" d="M1346.58,604.76c0,.22,16.22-.24,16.22,0s-34.51,6.76-34.51,7.07,47.65-.51,47.65,0c0,.78-58.92,6.5-58.92,7.14,0,.8,63.16-.34,63.16,0,0,.63-74.17,6.06-74.17,6.86,0,.38,74-1,74,0,0,.49-80.18,6.24-80.18,7.12s81.77-.76,81.77,0c0,.52-91.51,5.84-91.51,6.92,0,.63,91.67-.57,91.67,0,0,1.46-98.64,5.86-98.64,7.13,0,.51,95.68-1.18,95.68,0,0,1.47-101.3,6.21-101.3,6.93,0,1.19,100.94-.78,100.94,0,0,1-110.14,5.9-110.14,7,0,1.42,107.93-.82,107.93,0,0,1.66-111.89,5.55-111.89,7.14,0,1.39,108.52-1.46,108.52,0,0,1.17-117.13,5.74-117.13,7,0,.81,115.21-1.18,115.21,0,0,.85-119.09,5.34-119.09,7.1,0,1.39,116.43-1,116.43,0,0,1.55-125.06,5.54-125.06,7.16s123.82-1.59,123.82,0c0,1.88-130.23,5.56-130.23,7,0,.72,125.39-1.41,125.39,0,0,1.8-130,5.91-130,6.84s127.77-1.35,127.77,0c0,1.67-132.83,5.44-132.83,7.2s131.77-.87,131.77,0c0,1.29-138.26,5.5-138.26,6.91,0,1.86,132.71-1.27,132.71,0,0,.92-138.19,5.34-138.19,6.81,0,1.27,135.65-1.78,135.65,0,0,.86-142.87,6.07-142.87,7,0,1.93,139-1.09,139,0,0,.72-143.44,5.5-143.44,7,0,1.1,138.23-1.77,138.23,0s-142.22,5.76-142.22,7,141.48-1.74,141.48,0c0,1.24-146.44,5.44-146.44,7,0,1.86,143.28-.89,143.28,0,0,2.21-148.42,5.23-148.42,7,0,.92,142.67-1.9,142.67,0,0,2.18-147.84,5.5-147.84,7.09,0,1.31,142.74-1.69,142.74,0,0,2.08-148.37,5.85-148.37,7,0,.75,147.18-1.45,147.18,0,0,1.18-151,5.35-151,7.18,0,1.37,144.94-2,144.94,0s-153.65,4.95-153.65,7.07c0,1,150.37-1,150.37,0s-154.5,5.55-154.5,6.94c0,1.95,147.84-1.33,147.84,0s-150,4.78-150,7c0,1,148.47-1.23,148.47,0,0,1.52-156.35,6.16-156.35,7.19,0,1.93,151.65-1.88,151.65,0,0,.78-155.66,5.48-155.66,7.06,0,1,149.63-1.1,149.63,0,0,2.05-152.51,5.22-152.51,6.8,0,1.06,150.19-.91,150.19,0s-156.34,5.22-156.34,6.81c0,1.37,149.8-1.15,149.8,0,0,1.5-153.64,6-153.64,6.86,0,1.75,149.17-.76,149.17,0,0,1.45-153.51,5.56-153.51,7,0,1,149.88-2.21,149.88,0,0,1.76-156.67,5.83-156.67,6.89,0,1.21,150.36-1.51,150.36,0,0,.86-156.21,5.48-156.21,7s153-1.24,153,0c0,2-155.77,5-155.77,6.89,0,2,150-2.06,150,0,0,1.13-156,6-156,6.84,0,1.48,150.54-1.48,150.54,0s-153.36,6-153.36,6.87c0,1,148.86-1.29,148.86,0,0,.92-152.3,4.57-152.3,6.84,0,1.49,148.09-1,148.09,0s-152.56,6.15-152.56,7c0,1.48,148.84-1.4,148.84,0,0,1.88-153.52,5.68-153.52,7.13,0,1.07,148.35-2,148.35,0,0,2.23-154.83,5.52-154.83,7.11s151-.94,151,0c0,1.24-155.09,5.81-155.09,6.93,0,2.13,151.61-1.43,151.61,0,0,2.23-155.25,5.55-155.25,7.19,0,1,148.91-1.49,148.91,0s-154.44,4.88-154.44,6.82c0,1.59,152.65-2,152.65,0,0,1.24-162.75,5.51-162.75,7.2,0,4.11,306.24-3,306.24,0,0,2.59-322,2.9-322,7.19,0,3.85,311.93-2,311.93,0,0,1.69-329.26,4.53-329.26,7.18,0,4.32,320.92-2.14,320.92,0,0,4.47-335.07,5.36-335.07,7.06,0,3.3,326.15-1.69,326.15,0,0,2.85-329.29,4.82-329.29,6.89,0,3.63,321.12-3.74,321.12,0,0,4.29-324.67,2.61-324.67,7,0,3.3,315.09-2.08,315.09,0s-316.1,3.88-316.1,6.85c0,2.77,311.73-4.17,311.73,0,0,3.15-315.42,5.29-315.42,7,0,2.57,316-4.52,316,0,0,4-318,2.71-318,7.07,0,1.63,314.38-2.28,314.38,0,0,3.44-318.39,4.07-318.39,7,0,2.49,318.15-1.63,318.15,0s-319.75,3.75-319.75,7c0,3.65,317.46-4.74,317.46,0,0,4.56-318.55,3.79-318.55,6.94,0,2.34,317.38-4.37,317.38,0s-323.24,3.23-323.24,7.18c0,2.55,326.74-2.25,326.74,0,0,4.69-327.2,5.3-327.2,7,0,5.14,492-5.12,492,0,0,7.41-494.68,2.43-494.68,6.85,0,5.31,483.63-4.32,483.63,0S985,1032,985,1038.88c0,4.38,477.89-3.11,477.89,0,0,5.72-480.88,4.32-480.88,6.82,0,6.48,468.91-3.55,468.91,0,0,4-471.29,2-471.29,7.19s464.47-3.54,464.47,0c0,4.9-468.13,1-468.13,6.89,0,5.29,455.31-2.91,455.31,0,0,4.22-459,1.61-459,7,0,5.61,449.81-3.68,449.81,0,0,5.34-453,.42-453,7,0,5.62,443.18-5.61,443.18,0,0,5.25-443.25.32-443.25,6.89,0,3.92,431.07-6,431.07,0,0,5.5-435.91,1.31-435.91,7,0,2.21,426.14-2.9,426.14,0,0,6.19-426.89,1.52-426.89,6.92,0,3.66,417.38-2.74,417.38,0,0,3.8-419.35,3.83-419.35,6.93,0,4.19,407.53-4.11,407.53,0,0,5.42-412.74,4.16-412.74,7.12,0,5.68,403.59-2.34,403.59,0,0,3.23-406,4.22-406,6.93,0,4.57,393.35-5.27,393.35,0,0,4.63-395.79,4-395.79,7.16,0,4.51,388.91-4.9,388.91,0,0,3.82-391.92,4.2-391.92,7,0,3.91,380.82-4.37,380.82,0,0,3-382.14,3.46-382.14,6.85,0,4.75,373.43-3.24,373.43,0,0,4.33-376.65,4-376.65,7,0,4,367.33-4.45,367.33,0,0,5-369.75,2.69-369.75,7,0,5.74,554.28-2.81,554.28,0,0,8.15-559.09,2.32-559.09,6.85,0,7.08,547.47-3.9,547.47,0,0,6.19-549.08,3.73-549.08,7,0,4.77,537-7.58,537,0,0,6.45-537.66-.63-537.66,6.87,0,3,523.32-6.62,523.32,0,0,3.43-528.56,4.12-528.56,7.15,0,6.24,516.61-3.63,516.61,0,0,5-520.1,4-520.1,7.16,0,6.6,508.32-3.77,508.32,0,0,2.58-508.05,2.81-508.05,6.88,0,3.39,495.95-4.16,495.95,0,0,2.54-501.77,2.7-501.77,7,0,5.29,488.84-6.46,488.84,0,0,5.67-489.08.07-489.08,6.83s474.6-4.78,474.6,0c0,2.86-477.55,1.91-477.55,7.14,0,4.86,464.55-6.6,464.55,0,0,6.43-466.71,2.77-466.71,6.91,0,4.62,455.15-3.65,455.15,0,0,6.73-457.66,1.64-457.66,7,0,6.18,448.34-3.79,448.34,0,0,6.35-456.27.82-456.27,7,0,4.58,447.75-6.06,447.75,0,0,2.55-452.42,3.85-452.42,6.83,0,4.89,443.53-2.61,443.53,0,0,3.64-453.39,1.26-453.39,7.19,0,5.41,442.44-5.69,442.44,0,0,3.72-447.09,4.43-447.09,6.85,0,6.48,439.87-4.57,439.87,0,0,5.83-447.46,4.56-447.46,6.84,0,6,439-6.38,439,0,0,3-444.16.47-444.16,7,0,3,432-3.33,432,0,0,4.39-438.28,3.63-438.28,7,0,2.31,428.32-2.6,428.32,0s-437.94,2.81-437.94,6.82c0,6.29,430.87-6.35,430.87,0,0,3.83-437.09,2.89-437.09,6.88,0,3.58,427-2.63,427,0,0,2.88-430.91,4.81-430.91,7.1,0,6.26,421.51-4.62,421.51,0,0,4.14-430.64,1.19-430.64,7.14,0,4.24,419.64-3.37,419.64,0,0,3-426.56,3.28-426.56,7,0,5.19,420.2-4.56,420.2,0,0,3.31-426.21,3.91-426.21,6.91,0,5.44,414.4-3.62,414.4,0,0,5.82-419.79,1.92-419.79,6.85,0,5.24,410.08-5.32,410.08,0,0,2.3-417.77,4.71-417.77,7,0,6,408.33-2.65,408.33,0,0,4.46-414.48,2.82-414.48,7.12,0,5.58,406.47-2.38,406.47,0,0,5.22-414,3.15-414,7.05,0,4.06,403.57-5.6,403.57,0,0,3.5-408.11,1.51-408.11,7.06,0,4.91,398-4.9,398,0,0,4.18-407.3,2.25-407.3,7,0,2.27,400.25-3.44,400.25,0,0,2.28-405.59,1.94-405.59,6.9,0,5.44,394.31-5.85,394.31,0,0,4-399.65,1.06-399.65,7,0,4.26,390.54-5.52,390.54,0s-397.5,1.35-397.5,7.12c0,3,389-3.75,389,0,0,5.34-399.1,2.89-399.1,6.93,0,3.37,391.76-2.65,391.76,0,0,3.49-396.93,3.84-396.93,7.16,0,5,387.74-2,387.74,0,0,3.94-395.85,1.07-395.85,7,0,5.33,390.52-3,390.52,0,0,5.67-394.76,3.63-394.76,7s388.41-4,388.41,0c0,4.54-397.12,4.79-397.12,7.12,0,4.31,389.84-2,389.84,0,0,5.33-396.31,4.87-396.31,6.91,0,4.34,390.8-3.24,390.8,0,0,4.56-397.91,3.66-397.91,7,0,5.19,394.25-5.11,394.25,0,0,3.14-398.15,2.21-398.15,6.82,0,3.42,393.81-2.7,393.81,0,0,3.81-402.14,1.11-402.14,6.9,0,2.16,394.93-3,394.93,0,0,3.2-401.09,4.51-401.09,6.89s395.11-5.71,395.11,0c0,3.24-403.56,3.71-403.56,7,0,2.52,397.13-4.55,397.13,0,0,5.63-402.83,1.78-402.83,7,0,5,398.6-4.11,398.6,0,0,5.08-403.94,1.17-403.94,6.92,0,2.46,397.39-5.83,397.39,0,0,4.25-402.72,1.49-402.72,6.9,0,2.37,398.08-2.69,398.08,0,0,3.15-407.83,4.14-407.83,6.9s404.62-4.71,404.62,0c0,2.46-409.55,2.34-409.55,7.19,0,4.25,402.66-2.6,402.66,0,0,4.72-410.7,4.4-410.7,7.07s404.79-4,404.79,0c0,4.33-408.79,4.25-408.79,6.82,0,2.81,403.71-3.89,403.71,0,0,4.33-410.34,1.11-410.34,6.86s405.28-2.8,405.28,0c0,5.06-415.4,1-415.4,7.07,0,4.32,409.66-2.33,409.66,0,0,5-413.36,4.4-413.36,7.14,0,3.7,407.58-5.71,407.58,0,0,4.81-415.91,3-415.91,6.87,0,3.64,412.17-2.23,412.17,0,0,3.82-412.56,3.7-412.56,6.88,0,4.36,404.2-2.44,404.2,0,0,3.65-398.65,4.08-398.65,7.18,0,4.39,395.71-2.07,395.71,0,0,4.54-397,4.22-397,6.87,0,3.91,391.94-2.26,391.94,0s-385.87,2.47-385.87,7.16c0,4,376.58-2.77,376.58,0,0,1.89-374.18,4.27-374.18,7,0,5.19,370.77-4.16,370.77,0,0,2.14-370.62,2-370.62,6.8s364.55-3.25,364.55,0c0,4.17-361.7,2.37-361.7,7,0,5.19,358.39-3.21,358.39,0,0,3-354.63,3.69-354.63,7,0,4.76,346.4-3.52,346.4,0,0,1.83-343.1,4-343.1,7.16,0,4.43,337.13-4.1,337.13,0,0,3.54-335.82,4.57-335.82,7,0,3.21,331.58-2,331.58,0,0,4-327.42,4.94-327.42,7.07s322-4.66,322,0-319.78,2.83-319.78,7.12c0,3.38,312.64-2.76,312.64,0,0,4.37-311.64,3.76-311.64,7.08s309.08-2.92,309.08,0c0,2.75-306.17,4.88-306.17,6.84,0,1.75,299.19-3.67,299.19,0,0,4.33-295.21,2.81-295.21,6.92,0,3.47,289.72-1.65,289.72,0,0,3.66-288.25,3.37-288.25,7.19,0,4.23,281.15-1.5,281.15,0,0,3.41-279.49,5.46-279.49,7.08,0,3.44,275.17-2.72,275.17,0,0,1.61-272.87,2.93-272.87,6.9,0,2.61,267.49-1.87,267.49,0,0,2.09-264.22,3.77-264.22,7,0,1.9,260.28-2.43,260.28,0,0,3.7-256.9,3.2-256.9,6.82,0,1.94,249.09-3.33,249.09,0,0,2.39-246.14,5.32-246.14,7.16,0,2.06,239.88-2.62,239.88,0,0,1.93-240.07,5.41-240.07,7,0,3.08,234.7-1.61,234.7,0,0,2-231.35,5.29-231.35,7,0,2.47,227.47-1.28,227.47,0,0,3.25-222.91,5.33-222.91,7,0,2.08,218.13-2.67,218.13,0,0,3.23-219.27,5.21-219.27,7.14,0,3.05,214.8-2.41,214.8,0s-211.09,5.24-211.09,7.16c0,3,201.85-2.25,201.85,0,0,1.5-200.3,4.62-200.3,7,0,1.68,195-2.34,195,0,0,1.4-191.05,5.43-191.05,6.82,0,2.42,187.69-1.82,187.69,0,0,2.38-184.42,5.13-184.42,6.88,0,2.17,179.53-1.28,179.53,0,0,2.53-177.9,4.57-177.9,6.8,0,1.28,172.19-1.8,172.19,0s-168,6-168,7.12,160.58-.92,160.58,0c0,2.14-160.53,5-160.53,7s157.2-2.28,157.2,0c0,1.83-151.9,5.52-151.9,7,0,1,145.33-1.73,145.33,0,0,2.13-143.19,4.85-143.19,6.89,0,1.13,138.43-1.71,138.43,0s-136,5.9-136,6.82c0,1.12,128.25-.93,128.25,0,0,1.56-128.83,5.92-128.83,7.14,0,.66,124.36-1,124.36,0,0,.62-120.63,6-120.63,6.82s117.13-.85,117.13,0c0,.68-114.66,5.57-114.66,7,0,.89,107.23-1.55,107.23,0,0,.69-102.91,5.64-102.91,7,0,.53,97.7-1,97.7,0,0,1.37-95,5.76-95,7s90.07-1.35,90.07,0c0,.6-90.75,6.33-90.75,7,0,.43,85.86-1.21,85.86,0s-81.79,5.67-81.79,6.81c0,.53,75.4-.9,75.4,0,0,.66-71,5.84-71,6.84,0,.42,65.47-.87,65.47,0s-64.46,6.27-64.46,7.15,61.48-.42,61.48,0c0,.89-59,6.22-59,6.9s49.71-.72,49.71,0c0,.45-48.66,6.76-48.66,7.13s45.89-.35,45.89,0-41.75,6.57-41.75,7.1,34.76-.33,34.76,0-34,6.65-34,7.13c0,.31,27.67-.16,27.67,0s-23.76,6.76-23.76,7,21.19-.2,21.19,0-18.92,6.81-18.92,7,11.61-.16,11.61,0-8.73,7-8.73,7.09,1.32,0,1.32,0"/><path class="cls-5" d="M1571.41,1038c0,.08,8.71-.08,8.71,0s13.65,6.72,13.65,6.87,2.43,0,2.43,0,3.3,6.89,3.3,6.93h.15s-1.49,6.93-1.49,7,3.06,0,3.06,0-4.74,7-4.74,7.06h1c0,.1-5.72,7.07-5.72,7.15h2c0,.14-7.49,7.07-7.49,7.18h.23c0,.11-8.15,7-8.15,7.18h1.21s-6.71,7.1-6.71,7.16,1.09,0,1.09,0c0,.18-10.71,6.73-10.71,6.9,0,0,1.74,0,1.74,0s-10.57,6.79-10.57,6.88h3.8c0,.11-12.06,6.82-12.06,7,0,0,1.61,0,1.61,0s-13.09,6.9-13.09,7.07c0,0,2.38,0,2.38,0s-10.59,6.81-10.59,6.95,2.39,0,2.39,0c0,.23-14.41,6.71-14.41,6.82s1.39,0,1.39,0-11.82,6.7-11.82,6.87,2.25,0,2.25,0-12.81,6.85-12.81,6.93.38,0,.38,0-11.82,6.76-11.82,7c0,0,3.1,0,3.1,0,0,.2-16.15,7-16.15,7.1s1.86,0,1.86,0-13,6.83-13,7c0,0,3,0,3,0,0,.18-14.95,6.92-14.95,7.09,0,0,1.89,0,1.89,0,0,.25-15.21,6.7-15.21,6.94,0,0,.86,0,.86,0,0,.21-13.33,7-13.33,7.17s2.38,0,2.38,0-14.11,6.88-14.11,7.1c0,0,2,0,2,0,0,.23-16,6.69-16,6.86,0,0,3.57,0,3.57,0s-18.1,7-18.1,7.13,2.71,0,2.71,0c0,.2-12.3,6.89-12.3,7s1.3,0,1.3,0c0,.17-10.6,6.7-10.6,6.81s1.52,0,1.52,0-10.9,6.75-10.9,6.91.39,0,.39,0-10.23,7-10.23,7.1,1.56,0,1.56,0-12.47,6.81-12.47,6.94,2.59,0,2.59,0-11.86,6.89-11.86,7.08c0,0,3.74,0,3.74,0s-12.17,7-12.17,7.06h3.42c0,.21-12.38,6.87-12.38,7s1.56,0,1.56,0S1295,1276,1295,1276.15s1.56,0,1.56,0-11,6.72-11,6.8,1.12,0,1.12,0-9.78,7.09-9.78,7.19,1.83,0,1.83,0-13.34,6.92-13.34,7,1.38,0,1.38,0-11.13,7-11.13,7.06,2.84,0,2.84,0-10.29,6.82-10.29,6.9,1.57,0,1.57,0c0,.2-12.86,7-12.86,7.08s5,0,5,0c0,.18-12.6,7-12.6,7.13h2.26c0,.2-12,7-12,7.15s1.56,0,1.56,0c0,.16-9.18,6.79-9.18,7s.64,0,.64,0-13.93,7-13.93,7.17h4c0,.2-13.18,7.08-13.18,7.18s1.4,0,1.4,0-10.72,6.93-10.72,7.11c0,0,4.16,0,4.16,0,0,.18-13.74,6.83-13.74,7,0,0,4.38,0,4.38,0s-11.55,6.79-11.55,6.87,1.08,0,1.08,0-10.83,6.83-10.83,6.9,1.57,0,1.57,0-11,7-11,7.06,1.57,0,1.57,0-9.6,7-9.6,7.14h1.2c0,.11-6.63,6.79-6.63,6.91s1.2,0,1.2,0-8.07,7.11-8.07,7.17h1s-6.13,7-6.13,7.16h1.78c0,.06-6.7,7-6.7,7.13h1.2c0,.11-6.36,7-6.36,7.12h2.74c0,.11-10.52,6.82-10.52,7h2.35c0,.09-6.5,6.94-6.5,7s2.73,0,2.73,0-7.15,6.88-7.15,7,.31,0,.31,0-6.53,7.13-6.53,7.19h1.2c0,.05-7.56,6.84-7.56,7h1.17c0,.08-5.84,6.76-5.84,6.89h1.72c0,.09-6.32,6.8-6.32,6.94h1.63c0,.16-8,6.81-8,6.88h.94c0,.09-6.63,7-6.63,7.09s.7,0,.7,0-5.89,6.93-5.89,7,1.21,0,1.21,0-8.64,7-8.64,7.17,3.32,0,3.32,0-7.1,6.85-7.1,7h.16c0,.07-4.39,7.11-4.39,7.15s1.88,0,1.88,0-9.65,6.89-9.65,7,1.11,0,1.11,0-5.64,6.94-5.64,7h1.21c0,.11-7.72,6.86-7.72,7h3.43c0,.16-8,7-8,7.13s2.76,0,2.76,0-7.06,6.84-7.06,6.93H1012c0,.16-9,7-9,7.08h.56c0,.08-5.8,7-5.8,7.16s1.34,0,1.34,0-8.37,6.89-8.37,7,2,0,2,0-6,6.91-6,7,1.21,0,1.21,0-8.64,7.07-8.64,7.14h1.23s-5.91,6.75-5.91,6.88,2.53,0,2.53,0-6.81,6.69-6.81,6.83h1.21s-7,6.77-7,6.91,2,0,2,0-7.93,7-7.93,7.12,3.3,0,3.3,0-9.52,7-9.52,7.1,1.4,0,1.4,0-7,6.77-7,6.89,3.41,0,3.41,0-8.95,6.87-8.95,6.94h1.47c0,.12-4.15,6.94-4.15,7.06s1.29,0,1.29,0-9.56,6.89-9.56,6.95,4.14,0,4.14,0-8.53,6.91-8.53,7,2.14,0,2.14,0-8.72,6.85-8.72,7,1.48,0,1.48,0-7.48,7.06-7.48,7.18,5,0,5,0-8.3,7.09-8.3,7.2,1.4,0,1.4,0-7.86,6.76-7.86,6.91h3.33c0,.11-8.21,6.88-8.21,6.95s1.22,0,1.22,0-6.78,7-6.78,7.07,1.22,0,1.22,0-6.69,6.86-6.69,7,1.22,0,1.22,0-7.32,7.12-7.32,7.17h.9c0,.14-6.09,7-6.09,7h1.27c0,.11-7.63,6.67-7.63,6.81h4.21c0,.07-9.13,7-9.13,7.14s.91,0,.91,0-5.64,6.68-5.64,6.81h.84c0,.1-6.91,6.88-6.91,7h.36c0,.11-6.3,6.88-6.3,7s1.09,0,1.09,0-6,7.07-6,7.19,2.48,0,2.48,0-8.2,6.8-8.2,6.9h0s-5.93,6.92-5.93,7h1.66c0,.11-8.12,7-8.12,7h3.13c0,.09-5.13,6.77-5.13,6.87s.84,0,.84,0-8.74,7-8.74,7h3c0,.14-8.38,6.82-8.38,6.93s2.21,0,2.21,0S804,1816.89,804,1817s2.81,0,2.81,0-7.18,6.9-7.18,7,1.22,0,1.22,0-6,6.82-6,6.92h2c0,.12-8,6.7-8,6.8h1.23c0,.07-5.33,6.82-5.33,6.88h.38c0,.12-9.26,7.09-9.26,7.2h1.23c0,.09-4.43,6.72-4.43,6.8h1.71c0,.12-8.56,6.77-8.56,6.91s.79,0,.79,0-4.56,6.79-4.56,6.91,1.39,0,1.39,0-5.73,6.93-5.73,7.06h1.12c0,.1-9.74,7-9.74,7.11s1.62,0,1.62,0-6.6,6.88-6.6,7,2.52,0,2.52,0"/><path class="cls-5" d="M1557.93,1037.08h1.36c0,.28-17.26,7-17.26,7.18,0,0,2,0,2,0s-14.14,6.79-14.14,6.9,1.59,0,1.59,0c0,.22-15.57,6.83-15.57,6.94s3.52,0,3.52,0c0,.19-16.28,7.08-16.28,7.18s2.33,0,2.33,0c0,.21-18.45,6.77-18.45,7,0,0,2.61,0,2.61,0s-16.85,6.89-16.85,7.12c0,0,2.33,0,2.33,0,0,.24-18.22,7-18.22,7.08s2.47,0,2.47,0c0,.21-14.48,7-14.48,7.08s3.16,0,3.16,0-19.49,7-19.49,7.11.81,0,.81,0c0,.2-14.14,6.66-14.14,6.9,0,0,2.91,0,2.91,0,0,.21-18.61,6.81-18.61,7,0,0,2.24,0,2.24,0s-15.36,6.69-15.36,6.91c0,0,1.88,0,1.88,0s-19.54,6.85-19.54,7.07c0,0,2.84,0,2.84,0s-19.42,6.69-19.42,6.83,2.56,0,2.56,0-21,6.78-21,7.09c0,0,3.09,0,3.09,0"/><path class="cls-5" d="M1576.49,854.89s5.35,0,5.35,0,6.58,7,6.58,7.1.23,0,.23,0,4.23,6.79,4.23,6.87h.94c0,.08,4,6.78,4,6.86h1.7c0,.07-2.41,6.86-2.41,6.9s3.09,0,3.09,0-1.71,7.08-1.71,7.15h1c0,.07-1.83,7-1.83,7.05s2.36,0,2.36,0-6,6.91-6,7,1.75,0,1.75,0-2.71,6.94-2.71,7,1,0,1,0-4.85,6.83-4.85,6.91h2.06c0,.09-7.58,6.79-7.58,6.91H1588c0,.15-8.43,7-8.43,7s1.85,0,1.85,0-6.39,7-6.39,7.15h1.2c0,.07-6.9,6.7-6.9,6.81h1.56c0,.07-7.34,6.76-7.34,6.83s1.91,0,1.91,0-10.23,6.84-10.23,6.91,1.79,0,1.79,0-7.43,6.85-7.43,7H1552c0,.15-9.73,6.92-9.73,7.08s2.28,0,2.28,0-9.32,6.79-9.32,6.9,1.26,0,1.26,0-10.51,6.91-10.51,7,4.23,0,4.23,0-12.42,6.69-12.42,6.89c0,0,1.31,0,1.31,0s-7.12,6.89-7.12,7,1,0,1,0-11.3,6.7-11.3,6.84h1.5c0,.17-9.33,6.76-9.33,6.93s.37,0,.37,0-9.72,6.75-9.72,6.84,1.55,0,1.55,0-10.86,6.84-10.86,7h1.58c0,.11-10.79,7.06-10.79,7.17s1,0,1,0-11.62,6.84-11.62,6.9.8,0,.8,0-10.44,7-10.44,7.15,1.63,0,1.63,0-13.51,6.81-13.51,7,3,0,3,0c0,.17-10.8,6.81-10.8,6.91s2.81,0,2.81,0-11.9,6.79-11.9,6.94.27,0,.27,0c0,.22-12.51,7.08-12.51,7.17s3.3,0,3.3,0-14.43,6.72-14.43,7c0,0,2.16,0,2.16,0s-12.78,7-12.78,7.17.27,0,.27,0-12.12,6.85-12.12,7,1.71,0,1.71,0-12.06,7-12.06,7.17,3.55,0,3.55,0-11.81,6.8-11.81,6.94.1,0,.1,0c0,.17-11.2,6.76-11.2,6.94,0,0,2.48,0,2.48,0s-11.75,7-11.75,7.17c0,0,1,0,1,0s-10.49,6.83-10.49,7,1.51,0,1.51,0-10.29,6.94-10.29,7.09h2.65c0,.14-7.12,6.8-7.12,6.92s4.15,0,4.15,0"/><path class="cls-5" d="M1568.8,854s3.84,0,3.84,0c0,.23-18.42,6.74-18.42,7,0,0,1.87,0,1.87,0s-11.22,6.69-11.22,6.85c0,0,1.88,0,1.88,0s-12.47,7-12.47,7.18h1.62c0,.13-12.89,6.91-12.89,7s1.63,0,1.63,0-9.75,6.82-9.75,6.94,1.22,0,1.22,0-9.46,6.92-9.46,7h.1c0,.07-8.07,6.77-8.07,6.9s1.48,0,1.48,0-8.32,6.83-8.32,6.91,1.1,0,1.1,0-11,7-11,7.12h.83c0,.05-9,6.82-9,6.93s3.08,0,3.08,0-11.19,6.85-11.19,7h1.4c0,.09-10.1,6.91-10.1,7h1.46c0,.17-10,6.8-10,6.93s1.61,0,1.61,0-9.48,6.75-9.48,6.83H1442c0,.08-12,7-12,7.13h2c0,.15-8.64,6.74-8.64,6.8h3.74c0,.09-12.39,6.78-12.39,7,0,0,2.25,0,2.25,0s-11.89,6.84-11.89,7,3.31,0,3.31,0-10.9,6.93-10.9,7h1.17c0,.09-11.06,6.84-11.06,7s1.59,0,1.59,0-10.84,6.7-10.84,6.86,1.41,0,1.41,0-10.79,6.74-10.79,6.88,1.51,0,1.51,0-16.41,6.87-16.41,7,2.14,0,2.14,0-15.21,6.84-15.21,7c0,0,2.86,0,2.86,0"/><path class="cls-5" d="M1521.61,694s2.31,0,2.31,0,3.9,6.89,3.9,6.93h2c0,.05,2.13,6.72,2.13,6.82h1.5s1.11,7,1.11,7.1h.25c0,.06-1.76,7.09-1.76,7.15H1536c0,.07-3.36,7-3.36,7.14s.22,0,.22,0-.93,6.87-.93,6.92h.75c0,.06-2,6.77-2,6.81h1s-3.23,6.76-3.23,6.82,1,0,1,0-3.75,6.88-3.75,6.92,1,0,1,0-2.3,6.9-2.3,7,1.13,0,1.13,0-5,7-5,7.05.25,0,.25,0-5.24,6.77-5.24,6.83,1.35,0,1.35,0-6.79,7-6.79,7.06,1.08,0,1.08,0-5,6.78-5,6.84,1.14,0,1.14,0-6,6.86-6,6.94h1.16c0,.14-6.56,6.94-6.56,7s.66,0,.66,0-5.9,6.71-5.9,6.82h1.75c0,.1-5.44,7-5.44,7.09s.92,0,.92,0-10.33,6.95-10.33,7,1.67,0,1.67,0-5.71,7-5.71,7.08,3,0,3,0-10,7-10,7.11h1.3c0,.09-7.89,6.8-7.89,6.91h.85c0,.13-7,7-7,7.16s2.91,0,2.91,0-9.37,6.76-9.37,6.82,1.31,0,1.31,0-8,6.68-8,6.82,2.74,0,2.74,0c0,.17-9.36,6.85-9.36,7h.37c0,.12-9.47,6.88-9.47,7h3.76c0,.15-11.32,6.89-11.32,7s5,0,5,0c0,.19-12.13,6.66-12.13,6.8s2.94,0,2.94,0c0,.15-10.27,6.81-10.27,6.9s2.62,0,2.62,0-7.89,6.71-7.89,6.8.38,0,.38,0-9.09,6.8-9.09,6.86h1.42c0,.14-7.37,6.81-7.37,6.92s.14,0,.14,0-11.14,6.86-11.14,7h.85c0,.11-10.21,7.14-10.21,7.2s1.93,0,1.93,0-10.84,7-10.84,7.17,4.92,0,4.92,0-11.45,6.66-11.45,6.83h2.52c0,.19-10.86,6.7-10.86,6.83s1.5,0,1.5,0-9.31,6.93-9.31,7,2,0,2,0-10.31,6.65-10.31,6.83c0,0,1,0,1,0s-5.16,7-5.16,7.06h3.09c0,.1-3.17,7-3.17,7.08h1.53c0,.06-5.28,7-5.28,7.1s1.66,0,1.66,0-3.1,7-3.1,7.09h1.15s-.86,7.05-.86,7.13h.65c0,.07.77,6.9.77,7h1.9c0,.12,4.31,7,4.31,7.07s1.87,0,1.87,0"/><path class="cls-5" d="M1503.55,693c0,.09,7.27-.08,7.27,0,0,.24-26,6.68-26,6.85s2.42,0,2.42,0-18,7.07-18,7.19,3,0,3,0-11.58,6.85-11.58,7c0,0,.55,0,.55,0s-12.55,6.74-12.55,6.87,1.72,0,1.72,0-12,6.78-12,6.93,4.62,0,4.62,0-13.22,6.72-13.22,6.86,2.65,0,2.65,0-11.29,7-11.29,7.12,1.59,0,1.59,0-10.43,7-10.43,7.13,1.53,0,1.53,0-9.42,7-9.42,7.13,1.6,0,1.6,0-10.5,6.91-10.5,7H1397c0,.15-10.6,6.94-10.6,7.07s3.87,0,3.87,0c0,.19-10.74,7-10.74,7.07s.55,0,.55,0-9.42,7-9.42,7.19,1.18,0,1.18,0-9.47,6.75-9.47,6.83h3.51c0,.16-8.26,7.06-8.26,7.17s1.87,0,1.87,0-10.8,6.68-10.8,6.85,2.07,0,2.07,0-9.54,7-9.54,7.09H1343c0,.07-9,7-9,7.18s1.35,0,1.35,0-8.76,6.87-8.76,7c0,0,2.6,0,2.6,0,0,.18-10.75,7-10.75,7.18h4c0,.2-11.31,6.79-11.31,7s1.64,0,1.64,0-6,6.85-6,6.95.67,0,.67,0-7,6.77-7,6.87.32,0,.32,0-8.43,6.91-8.43,7,2,0,2,0-9.72,6.82-9.72,6.93,2.88,0,2.88,0-10.41,6.73-10.41,6.88h4.15c0,.09-9,6.69-9,6.84h1.3c0,.14-7.22,7-7.22,7.12s2.12,0,2.12,0-10.74,6.86-10.74,6.93,2.94,0,2.94,0-6.33,7-6.33,7.08h.54c0,.14-10,6.79-10,6.94h4.45c0,.14-10.12,7-10.12,7.11a3.84,3.84,0,0,0,.48,0c0,.06-7.77,6.81-7.77,6.9H1233"/><path class="cls-5" d="M1364.69,605.2s3,0,3,0,8.78,7.07,8.78,7.16.07,0,.07,0,2.1,7.1,2.1,7.16h1c0,.08.65,6.9.65,7h1s-.43,6.92-.43,7h2.83c0,.06-4.48,7-4.48,7.12h3.53c0,.1-4,7.11-4,7.2H1382c0,.1-4.24,6.91-4.24,7h1.12c0,.09-4.69,7-4.69,7.05s4.72,0,4.72,0-5.08,6.83-5.08,6.93H1375c0,.11-3.51,6.89-3.51,7h1.16c0,.12-3.48,7-3.48,7.09s2.85,0,2.85,0-6.22,6.81-6.22,6.91,3.19,0,3.19,0-6.73,6.81-6.73,6.92h.76c0,.09-3.6,6.78-3.6,6.84s3.76,0,3.76,0-5,6.88-5,7,1.64,0,1.64,0-6.29,7-6.29,7.08,3.06,0,3.06,0-6.52,6.84-6.52,6.95,1.32,0,1.32,0-5.33,6.74-5.33,6.87.68,0,.68,0-3.66,6.94-3.66,7,1.11,0,1.11,0-3.05,6.8-3.05,6.89h.7c0,.06-6.39,7.08-6.39,7.19h1.1c0,.06-5.92,6.88-5.92,7h.23c0,.08-3.94,6.94-3.94,7s1.47,0,1.47,0-4.3,6.7-4.3,6.81,0,0,0,0-6,7-6,7H1321c0,.09-5.82,7.06-5.82,7.18h1.1c0,.07-5.41,7-5.41,7.09s1.1,0,1.1,0-5.92,6.79-5.92,6.84h3.14c0,.09-8.05,6.94-8.05,7.06H1304c0,.1-6.07,6.82-6.07,6.87H1299c0,.06-5.47,7-5.47,7.07h.5c0,.12-5.15,6.92-5.15,7s1.12,0,1.12,0-5.56,6.82-5.56,6.88,2.09,0,2.09,0-8.64,6.71-8.64,6.86,1.4,0,1.4,0-4.08,6.92-4.08,7,1.13,0,1.13,0-5.22,7.05-5.22,7.17,2.16,0,2.16,0-9.21,7.06-9.21,7.13h.77s-4.7,7-4.7,7.11h1.06c0,.11-5.34,6.86-5.34,6.92s1.14,0,1.14,0-4.94,7-4.94,7.11h1.52c0,.11-7.71,6.89-7.71,7s1.16,0,1.16,0-7.79,6.71-7.79,6.85h3.32c0,.08-7.23,6.89-7.23,7s2.58,0,2.58,0-5.46,6.8-5.46,6.86h.16c0,.08-3.43,6.84-3.43,6.9s.69,0,.69,0-5.23,7-5.23,7.14h.89"/><path class="cls-5" d="M1346.61,604.27c0,.08,6.56-.1,6.56,0s-25,6.84-25,7.07c0,0,3.81,0,3.81,0,0,.22-15.13,6.95-15.13,7.13,0,0,3.19,0,3.19,0s-14.23,6.7-14.23,6.87c0,0,2.7,0,2.7,0s-9,7-9,7.12,1.18,0,1.18,0-10.94,6.76-10.94,6.91h3.48c0,.19-10.46,7-10.46,7.14s.76,0,.76,0-6.38,6.86-6.38,6.93.3,0,.3,0-9.51,6.85-9.51,7h2.21c0,.15-7.48,7-7.48,7.13s1.28,0,1.28,0-8.58,6.9-8.58,7h.72c0,.07-6.21,7-6.21,7.11h1.26c0,.14-8.29,7-8.29,7.16s2.15,0,2.15,0-8.57,6.91-8.57,7,.65,0,.65,0-5.22,6.78-5.22,6.84h.31c0,.11-5.38,7.08-5.38,7.2h1.71c0,.1-8.2,6.8-8.2,6.91s.35,0,.35,0-5.82,6.71-5.82,6.81,1.21,0,1.21,0-8.44,6.9-8.44,7,2.68,0,2.68,0-7.08,6.93-7.08,7,.08,0,.08,0-4.06,6.92-4.06,7,1.71,0,1.71,0-6.68,6.92-6.68,7h2c0,.15-7.18,6.9-7.18,7h.09c0,.14-6.33,7-6.33,7.1s1.17,0,1.17,0-5.73,6.92-5.73,7h2.3c0,.09-8.07,7-8.07,7.18s1.16,0,1.16,0-7.89,6.93-7.89,7.08h3.65c0,.07-7.78,6.84-7.78,6.94h.38c0,.07-2.57,6.85-2.57,7h.38c0,.11-8.25,7.11-8.25,7.19s3,0,3,0-7,6.95-7,7h.52c0,.11-3.4,6.73-3.4,6.81h.72s-6.86,6.71-6.86,6.81h0c0,.08-5,6.81-5,6.86h1.14c0,.09-5.85,6.9-5.85,7h1.13c0,.11-6.46,6.83-6.46,6.89h.28s-6.12,6.87-6.12,7h3c0,.12-5.72,6.78-5.72,6.88s.06,0,.06,0-6.07,6.8-6.07,6.85h.81c0,.07-3.65,6.82-3.65,6.87s1.12,0,1.12,0-5.55,6.71-5.55,6.84h1.12c0,.06-4.59,7-4.59,7h.21c0,.1-4.89,7-4.89,7.13s.14,0,.14,0-6.62,7-6.62,7.11h2.94c0,.08-7,6.86-7,6.93s3.56,0,3.56,0-7.21,7.08-7.21,7.19h.66c0,.09-6.19,6.7-6.19,6.81h3.76c0,.12-13.71,7-13.71,7.2s4.85,0,4.85,0c0,.18-20.64,6.9-20.64,7.19,0,0,1.86,0,1.86,0s-19.18,7-19.18,7.19,2.31,0,2.31,0c0,.24-16.69,7-16.69,7.06h.61c0,.07-3.74,6.84-3.74,6.89h1.54c0,.11-5.09,6.86-5.09,7s1.74,0,1.74,0-2.9,6.79-2.9,6.86,1,0,1,0-4.56,6.94-4.56,7,3.58,0,3.58,0-5.59,6.95-5.59,7.07h1.17c0,.09-5.18,7-5.18,7h3.64c0,.05-5.24,7-5.24,7s1,0,1,0-3.57,6.86-3.57,6.93h1c0,.12-5.42,7.07-5.42,7.18h2.56c0,.11-3,6.92-3,7H992c0,.12-4.58,6.77-4.58,6.85h0c0,.06-2.74,6.78-2.74,6.88h1.09c0,.1-4.43,6.78-4.43,6.83h1c0,.06-3,7.1-3,7.19h2c0,.09-5.64,6.78-5.64,6.89h.13c0,.07-3.83,6.86-3.83,7h2.18c0,.1-5.41,6.91-5.41,7h3.35c0,.1-4.41,6.76-4.41,6.89s1,0,1,0-4.87,6.9-4.87,7h2.11c0,.1-2.85,6.82-2.85,6.91h1.19c0,.08-4.76,6.88-4.76,6.94h1c0,.11-4.63,7.06-4.63,7.12h2.9c0,.06-4.77,6.87-4.77,6.92h1c0,.1-3.95,7.1-3.95,7.16h2.85c0,.09-5.86,6.91-5.86,7h1.46c0,.06-2.79,6.78-2.79,6.85h0c0,.09-3.68,6.91-3.68,7h1c0,.1-3,6.86-3,7h2.06c0,.14-6.86,6.77-6.86,6.85h3.86c0,.1-5.48,6.93-5.48,7h2.46c0,.1-4.86,6.75-4.86,6.86h1c0,.06-4.49,7.1-4.49,7.15s.93,0,.93,0-4.42,7.12-4.42,7.17H928s-2.38,6.82-2.38,6.88.08,0,.08,0-5.9,6.92-5.9,7,3.13,0,3.13,0-4.3,6.72-4.3,6.83h1s-3.81,7-3.81,7.13h1c0,.11-3.72,6.85-3.72,6.92h1c0,.12-3.76,7-3.76,7s1,0,1,0-7.26,6.86-7.26,7,1.73,0,1.73,0-6.4,6.77-6.4,6.83.13,0,.13,0-10,7-10,7.18,1.8,0,1.8,0-6.45,6.81-6.45,6.86,1.87,0,1.87,0-9.46,6.78-9.46,6.84,3.58,0,3.58,0-9.87,6.84-9.87,7h1.31c0,.11-8,7-8,7h1.3c0,.06-9.4,6.71-9.4,6.81s3.51,0,3.51,0-9.73,6.78-9.73,6.88,2.26,0,2.26,0-7.81,7-7.81,7.11,1.31,0,1.31,0-8.82,7-8.82,7.13.38,0,.38,0-7.3,6.93-7.3,7,3.64,0,3.64,0-9.65,6.83-9.65,6.91.49,0,.49,0-6.71,6.74-6.71,6.86,1.31,0,1.31,0-8,6.89-8,7,1.32,0,1.32,0-7.69,7-7.69,7.11.6,0,.6,0-8.11,7-8.11,7.05.4,0,.4,0-6.8,6.93-6.8,7.06,1.32,0,1.32,0-8.78,6.85-8.78,7h2.47c0,.06-8.27,6.78-8.27,6.91s1.32,0,1.32,0-8,6.83-8,7,1.32,0,1.32,0-8.12,7-8.12,7.12h1.32c0,.16-9.79,6.81-9.79,6.93s4.72,0,4.72,0-9.89,7.06-9.89,7.16h2.59c0,.12-10.7,6.81-10.7,7,0,0,4.18,0,4.18,0,0,.16-8.42,6.89-8.42,7h.9c0,.14-9.61,7-9.61,7.11s1.12,0,1.12,0-7.59,6.87-7.59,6.92h.91c0,.12-8,6.87-8,7s3.18,0,3.18,0-7.08,6.71-7.08,6.82h1.59c0,.12-9.92,6.73-9.92,6.91h1.54c0,.08-7.7,6.82-7.7,6.89a5.23,5.23,0,0,1,.56,0c0,.09-9,6.85-9,7s1.4,0,1.4,0-7.1,6.86-7.1,7,1.69,0,1.69,0-7.35,6.78-7.35,6.92H679c0,.12-7.92,6.76-7.92,6.91,0,0,1.33,0,1.33,0s-9.5,6.82-9.5,6.89h4.2c0,.07-9.13,7.06-9.13,7.2h1c0,.13-9.07,7-9.07,7.07h2c0,.11-7.55,6.75-7.55,6.82s1.34,0,1.34,0-6.38,6.72-6.38,6.85.14,0,.14,0-10.26,6.89-10.26,7.07c0,0,3.32,0,3.32,0s-7,7.08-7,7.15,0,0,0,0-8.36,6.77-8.36,6.87h3.46"/></g><g id="aille_1" data-name="aille 1"><path class="cls-6" d="M713.71,1538c0,1.68,126.37-1.27,126.37,0,0,1.66-123.16,5.25-123.16,6.93,0,1.16,114.75-1.63,114.75,0s-110.77,5.6-110.77,7,102.88-1.27,102.88,0c0,.55-104.15,5.62-104.15,7,0,.9,96.51-.93,96.51,0,0,.56-97.44,5.74-97.44,6.82s90.25-.48,90.25,0c0,1.09-94.17,6.44-94.17,7.07,0,1.22,88-.63,88,0,0,.92-95.66,6.34-95.66,7.17,0,.6,86.19-.62,86.19,0,0,1.13-94.26,5.64-94.26,6.87,0,.75,90-.94,90,0,0,1.25-98.94,6.21-98.94,7.12,0,.65,92.17-1,92.17,0,0,.7-105.84,6.45-105.84,7.2,0,1.09,98.46-.74,98.46,0,0,1.17-111.91,6.37-111.91,7.07,0,1.26,105.18-1.46,105.18,0,0,1.26-113.61,5.24-113.61,6.88,0,.58,106.2-1.49,106.2,0,0,1.21-112.48,6.33-112.48,7.13,0,1.26,101.65-.82,101.65,0,0,1-93.42,6.08-93.42,7.13,0,.76,84.15-.91,84.15,0s-66.43,6-66.43,6.8c0,.26,49.29-.67,49.29,0"/><path class="cls-6" d="M870.65,1517.25c0,1.24,81.42-1,81.42,0,0,.59-85.87,5.56-85.87,6.85,0,1.1,85.29-.75,85.29,0,0,1.17-89.82,5.63-89.82,7,0,.53,85.32-.8,85.32,0,0,1.15-89.17,6.27-89.17,6.89s86.63-1.2,86.63,0c0,.46-90.21,5.88-90.21,7s85.5-.63,85.5,0c0,1-90.61,6.21-90.61,6.86,0,1.22,89-.48,89,0,0,1.19-94.83,6.11-94.83,7.1,0,1.29,89.91-1,89.91,0,0,1.32-94.48,6.55-94.48,7.18,0,1.22,91.19-.82,91.19,0s-93.31,6.13-93.31,7c0,.69,85.53-1.28,85.53,0,0,.74-90.92,6.08-90.92,7s85.63-.77,85.63,0c0,.59-89,5.85-89,7.09,0,.64,82.69-1,82.69,0,0,1.17-84.42,5.88-84.42,6.9,0,.86,76.71-.7,76.71,0,0,1.14-78,6.28-78,7,0,.84,69.31-.84,69.31,0,0,.59-71.33,6-71.33,6.85,0,.44,61.25-.78,61.25,0,0,.36-64.75,6-64.75,6.81,0,.53,55.34-.62,55.34,0s-51.88,6.71-51.88,7.15,39.75-.46,39.75,0-37.5,6.29-37.5,6.82c0,.33,21.16-.23,21.16,0"/><path class="cls-6" d="M609.4,1482.81c0,2.19,351-4.65,351,0,0,3.63-350.43,5-350.43,7.16s349.79-4.6,349.79,0c0,4.29-356.72,4.47-356.72,6.93,0,2.7,356.36-2.21,356.36,0,0,3.74-358.19,2.88-358.19,6.82,0,4.25,354.09-2.8,354.09,0,0,5.15-361.55,2.45-361.55,7.07,0,3.66,361.41-3.14,361.41,0,0,3.62-363.63,4.32-363.63,7.06,0,3.66,272.19-3.69,272.19,0,0,1.54-279,3.63-279,7,0,3.17,270.48-4,270.48,0,0,1.63-277.22,4.2-277.22,7.09,0,2.32,269.58-2.1,269.58,0s-274.19,4.15-274.19,7c0,1.16,131.23-1.08,131.23,0,0,1.37-140.6,5-140.6,6.8,0,1.45,128.52-1.35,128.52,0,0,1.76-136.2,5.54-136.2,7.11,0,1.77,130.09-1.21,130.09,0,0,.94-143.63,5.53-143.63,6.92,0,.93,136.29-1.89,136.29,0,0,1.2-144.66,5.3-144.66,6.81s135.11-.78,135.11,0-149.34,5.29-149.34,7c0,2.15,142.36-2.08,142.36,0,0,1.09-160.73,4.86-160.73,6.81,0,.79,152-1.61,152,0,0,2.38-171.47,5.24-171.47,7,0,2.32,166.4-1.16,166.4,0,0,2.34-193.29,5.63-193.29,7,0,1.64,183.8-2.71,183.8,0,0,1.54-204.94,4.4-204.94,6.84s195.94-1.74,195.94,0c0,1.11-190.91,5.54-190.91,7s181.74-1.82,181.74,0c0,1.07-169,5.52-169,6.85,0,2.34,157.94-1.48,157.94,0,0,1.76-142.86,6-142.86,6.91,0,1.24,130.74-1.45,130.74,0s-112.18,5.61-112.18,7.15c0,1.36,95.9-1.45,95.9,0,0,1.06-76,6-76,6.92,0,.39,55.17-.74,55.17,0"/><path class="cls-6" d="M584.57,1405.45c0,2.52,325.53-4.88,325.53,0,0,4.58-331.8,4.55-331.8,7.08,0,3.08,347.34-2.59,347.34,0,0,3.86-352,3.68-352,6.9,0,3.39,369.18-4.89,369.18,0,0,3-376.67,1.48-376.67,7.13,0,3.22,386.71-4.66,386.71,0,0,5.37-397.24,1.79-397.24,7.2,0,3.71,399.19-4.18,399.19,0,0,3.77-410.29,3.59-410.29,6.85,0,5.47,411.9-4.83,411.9,0,0,3.67-430.12,1-430.12,7,0,4,430-3.75,430,0,0,3.53-447.94.67-447.94,7s452.53-2.91,452.53,0c0,2.68-470.5,1.83-470.5,6.86,0,4.55,467.47-5.5,467.47,0s-482,4.13-482,7c0,5.36,485.29-5.72,485.29,0,0,4.58-503.19,2.54-503.19,7.13s502.85-3.36,502.85,0c0,4.82-518.49,3.18-518.49,6.93,0,2,163.07-1.48,163.07,0,0,2.14-177.14,4.91-177.14,7.06,0,1.76,161.3-1.52,161.3,0,0,2.37-176.28,5.09-176.28,7.1s161.24-1,161.24,0c0,1.42-175.77,4.68-175.77,6.81,0,1.68,164.48-1.51,164.48,0,0,2.34-177.35,5.12-177.35,7.19,0,1.39,166.41-2,166.41,0,0,2.43-178.18,5-178.18,6.87,0,2.22,166.9-1.55,166.9,0,0,1.85-180.81,5-180.81,7.1s166.68-1.19,166.68,0c0,1.89-176.27,5.51-176.27,7.07,0,1.88,164.88-1.84,164.88,0,0,2.06-173.81,5.83-173.81,6.85,0,1.21,158.2-2.13,158.2,0,0,1.82-163.94,4.89-163.94,7,0,1.62,151.41-1.4,151.41,0,0,2.09-153.77,5-153.77,7s137.94-2,137.94,0c0,1.79-141.21,5.29-141.21,7,0,.9,128.48-.8,128.48,0,0,1.17-123.34,6.06-123.34,6.82,0,.59,103.09-1.24,103.09,0,0,.85-89.65,6.29-89.65,7.12s68.53-.67,68.53,0"/><path class="cls-6" d="M682.85,1261.07c0,.29,34.69-.22,34.69,0,0,.43-59.68,6.45-59.68,7,0,1.07,88.49-1.08,88.49,0s-105.55,5.67-105.55,6.87,125.61-1.28,125.61,0c0,.79-140.41,5.79-140.41,7.06,0,2.29,154-1,154,0,0,2.21-173.07,4.41-173.07,6.92,0,1.57,188.73-2.28,188.73,0,0,1.72-204.44,5.33-204.44,7,0,2.81,213.31-2.13,213.31,0,0,2.67-231.65,5.58-231.65,6.91,0,1.62,242.48-3,242.48,0,0,2.57-260.93,4.87-260.93,6.9,0,2.39,265.66-1.35,265.66,0,0,3.84-285,4-285,7.18s291.38-1.56,291.38,0c0,4-307.17,4.07-307.17,6.81,0,3.44,311.84-4.12,311.84,0,0,1.77-331.12,4.91-331.12,7.15,0,5,337.29-4.78,337.29,0,0,4.3-357.08,1.66-357.08,6.95,0,3.09,359-5.15,359,0,0,2.23-379.25,1.68-379.25,6.9,0,4.06,386-5.13,386,0,0,4.5-406,2.17-406,6.83s410.36-3.41,410.36,0c0,4-431.1,1.55-431.1,6.82,0,2.26,438.93-3.45,438.93,0,0,5.77-461.45.9-461.45,7,0,5.95,467.47-3.48,467.47,0,0,2.5-490.14.09-490.14,7.1,0,3.9,495-6.92,495,0,0,6.74-521.39,1.32-521.39,7,0,6.3,529.36-2.91,529.36,0,0,3.07-551.87,1.5-551.87,7.16,0,8.36,562-7,562,0,0,4.33-589.62-1.36-589.62,6.84,0,6.29,596.83-4.53,596.83,0,0,6.13-623.27,1-623.27,7.12,0,7.6,631.37-4.76,631.37,0,0,3.68-662.1-1.56-662.1,6.83,0,4.86,329.77-4.34,329.77,0,0,4.12-360.41,2.63-360.41,7,0,2.47,340.63-3.33,340.63,0,0,5-370.82,2.67-370.82,6.93,0,4.58,358.44-3.13,358.44,0,0,5.41-391.69,1.7-391.69,6.91,0,2.09,373.77-5.39,373.77,0,0,3.85-397.51,1.59-397.51,7.11,0,4.77,384.64-4.15,384.64,0s-398.74,4.42-398.74,7.13c0,3,380.38-3.63,380.38,0,0,4.7-385.81,5-385.81,7.18,0,3.1,370.26-3.71,370.26,0,0,5-373.44,4.27-373.44,6.86,0,4.8,358.87-3.36,358.87,0,0,4.44-358.49,3.72-358.49,7s342.4-2,342.4,0c0,3.07-341.83,2.72-341.83,7s324.54-4,324.54,0c0,1.84-324.88,3.9-324.88,6.86,0,2.66,305.08-4.49,305.08,0,0,2.38-299.17,4-299.17,6.88,0,1.68,281.85-1.44,281.85,0,0,2.65-278.88,4-278.88,7s259.4-1.5,259.4,0c0,2.08-257.74,4-257.74,7.12,0,2.94,235.39-2,235.39,0S120,1502.1,120,1505.41c0,1.91,203.78-2.63,203.78,0,0,1-196.53,4.14-196.53,6.85,0,2.43,173.46-1,173.46,0,0,2.44-162.92,5.62-162.92,6.86,0,.81,132.94-1.24,132.94,0s-112.77,5.86-112.77,7c0,.74,74-.81,74,0"/><path class="cls-2" d="M718.41,1261.54s3-.08,3,0,25.18,6.77,25.18,7c0,0,6,0,6,0s14,6.94,14,7.12c0,0,3.68,0,3.68,0s13.42,6.77,13.42,7c0,0,1.33,0,1.33,0s8,6.94,8,7h2.8c0,.07,10.14,6.72,10.14,6.9,0,0,1.62,0,1.62,0,0,.16,9,7,9,7.08h2.23c0,.1,4.35,6.82,4.35,6.94h.18c0,.1,3.2,7.09,3.2,7.14s2.82,0,2.82,0-.24,6.89-.24,7,3.12,0,3.12,0,3.67,6.91,3.67,7h1.08c0,.06,5.3,7.14,5.3,7.19h1.46c0,.1,2.83,7.06,2.83,7.13s1.12,0,1.12,0,3.17,6.81,3.17,6.89h.88c0,.07,4.53,7.09,4.53,7.19H861c0,.06,2.73,7,2.73,7s1.45,0,1.45,0,6.06,6.94,6.06,7.06,1.25,0,1.25,0,4.19,6.93,4.19,7,4.1,0,4.1,0,6.27,7,6.27,7.11.2,0,.2,0,7.72,6.72,7.72,6.84,1.45,0,1.45,0,9.18,6.93,9.18,7,2.59,0,2.59,0,8,7,8,7.07,1.06,0,1.06,0c0,.19,13,6.91,13,7s2.93,0,2.93,0,17.6,6.85,17.6,7.11h4.2c0,.11.7,7.14.7,7.19h1s-.36,6.79-.36,6.83h1.93s-1.15,6.77-1.15,6.82.89,0,.89,0-.91,6.89-.91,7h.62c0,.06-1.08,6.91-1.08,7h2.12s.2,6.94.2,7h.87c0,.07-.81,6.78-.81,6.87H960c0,.07-1.11,6.78-1.11,6.88h.24c0,.06-.7,7-.7,7h.89c0,.07-2,7.1-2,7.15H960c0,.06-3.78,6.75-3.78,6.83h.47c0,.07-2.56,7.12-2.56,7.19s3.22,0,3.22,0-4,7-4,7.09h.92c0,.1-3.07,7-3.07,7.12h1c0,.11-3,6.8-3,6.9s1.3,0,1.3,0-3.46,7-3.46,7.1h1.49c0,.08-7.87,6.86-7.87,7h3.77c0,.13-7.15,7-7.15,7.06s1.77,0,1.77,0-6,6.85-6,7,1.85,0,1.85,0-5.83,7.09-5.83,7.19,3.72,0,3.72,0-8.41,6.81-8.41,6.91,2.1,0,2.1,0c0,.16-8.57,6.93-8.57,7s3,0,3,0-9.16,6.91-9.16,7,1.45,0,1.45,0c0,.17-10.78,6.94-10.78,7.12,0,0,1.45,0,1.45,0,0,.16-8.59,6.83-8.59,6.91s2.59,0,2.59,0-10.14,6.88-10.14,7,2,0,2,0c0,.21-14.56,7.07-14.56,7.19s2,0,2,0-13.41,7.05-13.41,7.16,3.06,0,3.06,0-17.53,6.74-17.53,7c0,0,1.95,0,1.95,0s-16,6.73-16,6.82,1.38,0,1.38,0"/><path class="cls-2" d="M868.51,1517.68s1.72,0,1.72,0-4.55,6.8-4.55,6.87h1c0,.08-7.16,7-7.16,7.1s2.86,0,2.86,0-7.5,6.81-7.5,6.88,3.77,0,3.77,0-8.19,7.06-8.19,7.14h4c0,.15-7.7,7-7.7,7.09s1.05,0,1.05,0-5.53,6.92-5.53,7h2.95c0,.13-6.26,6.77-6.26,6.84s.61,0,.61,0-5.2,7-5.2,7.07h.09c0,.09-5.75,7.12-5.75,7.17h1.4s-3.78,7-3.78,7h1.68c0,.09-5.09,6.7-5.09,6.82h.53s-1,6.89-1,7h1.27c0,.08-4.42,6.92-4.42,7h.43c0,.07-.7,7.11-.7,7.2h1c0,.05-.08,6.79-.08,6.86h1.16c0,.11,3.63,6.84,3.63,6.89h1"/><path class="cls-2" d="M865,1516.77s2.24,0,2.24,0c0,.19-12.48,7-12.48,7.19s1.42,0,1.42,0-9.88,7-9.88,7.07,1.35,0,1.35,0-10.45,6.67-10.45,6.81h3.32c0,.1-10.1,6.75-10.1,6.86s2.2,0,2.2,0-9,6.82-9,6.88,1.29,0,1.29,0-8.62,6.81-8.62,7,.38,0,.38,0-7.19,7-7.19,7.15,1.31,0,1.31,0-8.61,6.89-8.61,7,1.68,0,1.68,0-10.72,6.87-10.72,7,4.06,0,4.06,0-8.91,6.87-8.91,7a3.38,3.38,0,0,1,.45,0c0,.14-8.5,6.7-8.5,6.83h.11c0,.09-6.92,6.69-6.92,6.81s.5,0,.5,0-8,7-8,7.14,4.56,0,4.56,0-10.48,7-10.48,7.2h2c0,.1-11.61,6.92-11.61,7.08s1.75,0,1.75,0c0,.19-11,7-11,7.11s3,0,3,0c0,.34-23.1,6.76-23.1,7.11,0,0,5.48,0,5.48,0"/><path class="cls-2" d="M713.7,1538.49s2.61,0,2.61,0,1.31,7,1.31,7.11h1s.56,7,.56,7h3.35c0,.08-4.33,7-4.33,7.13h2.12s-3.54,6.9-3.54,7h.84c0,.1-4,7-4,7.08H715c0,.15-9.21,6.83-9.21,6.89h1.43c0,.1-9.69,7-9.69,7.06s1.85,0,1.85,0-12.62,6.77-12.62,6.89,1.63,0,1.63,0c0,.22-14.69,7-14.69,7.18,0,0,2.93,0,2.93,0s-15.06,6.85-15.06,7c0,0,3.33,0,3.33,0s-11.37,6.72-11.37,6.85,1.33,0,1.33,0-6.14,6.92-6.14,7h3s.78,6.79.78,6.87,4.91,0,4.91,0c0,.2,16,7,16,7.19,0,0,4.87,0,4.87,0"/><path class="cls-2" d="M707.4,1537.6s.62,0,.62,0-12.93,6.84-12.93,7c0,0,.57,0,.57,0s-11.5,6.88-11.5,7h4.17c0,.09-10.65,6.93-10.65,7h1.88c0,.07-8.48,7-8.48,7.1s2,0,2,0-8.56,6.81-8.56,6.88,1.29,0,1.29,0-10.12,6.74-10.12,6.83,2.81,0,2.81,0-10.48,6.84-10.48,7,2.26,0,2.26,0c0,.17-9.43,6.71-9.43,6.81h.39c0,.06-11,6.8-11,7h.92c0,.16-9.4,7-9.4,7h1.5c0,.13-13.89,6.76-13.89,6.86s2.81,0,2.81,0S598,1621,598,1621.07s2.57,0,2.57,0c0,.2-14,6.82-14,7s.79,0,.79,0c0,.29-21.34,6.54-21.34,6.8,0,0,.42,0,.42,0"/><path class="cls-2" d="M609.23,1483.24s2.39,0,2.39,0-5.27,6.82-5.27,6.94h3c0,.12-4.35,6.88-4.35,7s.21,0,.21,0-5.68,6.86-5.68,7,.92,0,.92,0S595,1510.87,595,1511s1.08,0,1.08,0S591,1518,591,1518s.7,0,.7,0-7.72,7.08-7.72,7.17h1.16c0,.12-7.43,6.74-7.43,6.87h2.59c0,.14-8.44,7-8.44,7.12h1.66c0,.09-11.69,7.1-11.69,7.2s3.31,0,3.31,0-14,7-14,7.07,4.09,0,4.09,0-12.91,6.67-12.91,6.88c0,0,2.29,0,2.29,0,0,.19-16,7-16,7.13s1.81,0,1.81,0c0,.16-13.32,7-13.32,7.13s1,0,1,0c0,.27-18.08,6.57-18.08,6.8,0,0,.75,0,.75,0s-23,6.77-23,6.94,3.5,0,3.5,0c0,.29-31.34,6.66-31.34,7,0,0,4.29,0,4.29,0,0,.27-21.09,6.81-21.09,7.1,0,0,2.81,0,2.81,0s3.19,7.07,3.19,7.19,2.12,0,2.12,0,12.32,6.67,12.32,6.84c0,0,2.06,0,2.06,0,0,.22,12.72,6.94,12.72,7.11s3.92,0,3.92,0,13.92,6.84,13.92,7.07c0,0,3,0,3,0s21.07,6.6,21.07,6.84c0,0,4.37,0,4.37,0"/><path class="cls-2" d="M604.11,1482.44s.67,0,.67,0-17.36,6.56-17.36,6.84c0,0,3,0,3,0,0,.23-15.8,6.71-15.8,7,0,0,1.3,0,1.3,0,0,.18-12.4,6.79-12.4,6.89s.92,0,.92,0-13,6.78-13,6.95,1.75,0,1.75,0c0,.16-12.46,6.77-12.46,6.87s.95,0,.95,0c0,.2-14.55,6.93-14.55,7.1s1.69,0,1.69,0c0,.23-14.73,7.07-14.73,7.18s3.64,0,3.64,0c0,.19-16.49,6.86-16.49,7,0,0,1.89,0,1.89,0s-15.65,6.82-15.65,7c0,0,2.27,0,2.27,0s-17.05,6.83-17.05,7.08c0,0,3.12,0,3.12,0,0,.27-17.72,6.68-17.72,6.91,0,0,2.13,0,2.13,0,0,.29-19.07,6.79-19.07,7,0,0,1.39,0,1.39,0,0,.2-23.65,6.57-23.65,6.85,0,0,2,0,2,0"/><path class="cls-2" d="M582.3,1405.89h2.59c0,.09-5.16,7.11-5.16,7.16H581c0,.16-11.3,6.84-11.3,6.93h5.15c0,.13-10.67,6.68-10.67,6.82s1.32,0,1.32,0c0,.18-11.25,6.9-11.25,7.07,0,0,3.78,0,3.78,0,0,.17-15.43,6.93-15.43,7.06s1.09,0,1.09,0-19.59,6.78-19.59,7c0,0,3.46,0,3.46,0s-21.41,6.85-21.41,7.09c0,0,4.61,0,4.61,0s-19.24,6.74-19.24,6.94c0,0,1.31,0,1.31,0,0,.2-19.33,6.54-19.33,6.81,0,0,.94,0,.94,0,0,.23-16.16,6.9-16.16,7.11,0,0,1.68,0,1.68,0s-20.77,6.7-20.77,6.92c0,0,5.24,0,5.24,0s-18.38,6.61-18.38,6.81c0,0,2,0,2,0s-15.49,6.79-15.49,7c0,0,.4,0,.4,0s-15.84,6.6-15.84,6.81c0,0,.93,0,.93,0,0,.19-12.28,6.83-12.28,7s1.94,0,1.94,0c0,.19-14.33,6.93-14.33,7s.83,0,.83,0S360,1524.1,360,1524.29c0,0,2.93,0,2.93,0s-11.16,6.87-11.16,7h1.59c0,.08-9.43,6.75-9.43,6.85h.42c0,.12-7.26,6.85-7.26,6.91h.55c0,.1-5.14,7-5.14,7.15h.9c0,.1-2,6.83-2,6.91h.89s.71,7,.71,7.11,2.2,0,2.2,0,11.65,6.86,11.65,6.93,1.9,0,1.9,0"/><path class="cls-2" d="M576.15,1405s1.9-.06,1.9,0c0,.34-23.63,6.89-23.63,7.08,0,0,5.34,0,5.34,0,0,.22-18.65,6.72-18.65,6.9,0,0,2.28,0,2.28,0s-18,6.84-18,7.14c0,0,2.07,0,2.07,0,0,.27-19,6.91-19,7.19,0,0,2.52,0,2.52,0s-15.35,6.72-15.35,6.86.54,0,.54,0-17.42,6.71-17.42,7c0,0,.5,0,.5,0s-17.37,6.73-17.37,7c0,0,5,0,5,0s-22.53,6.61-22.53,6.86c0,0,2.63,0,2.63,0,0,.22-17.6,6.9-17.6,7s3.42,0,3.42,0c0,.22-22.85,6.91-22.85,7.13,0,0,4.4,0,4.4,0,0,.22-22.75,6.76-22.75,6.93s4.92,0,4.92,0c0,.3-23.2,6.77-23.2,7.06,0,0,3.23,0,3.23,0,0,.34-24.23,6.82-24.23,7.1,0,0,1.1,0,1.1,0,0,.2-23.54,6.52-23.54,6.82,0,0,2.62,0,2.62,0,0,.36-26.88,6.86-26.88,7.19,0,0,3.59,0,3.59,0,0,.42-30.62,6.53-30.62,6.87,0,0,4.38,0,4.38,0,0,.44-43.23,6.6-43.23,7.1,0,.07,6.78,0,6.78,0"/><path class="cls-2" d="M682.86,1260.6c0,.09,12.59-.07,12.59,0,0,.27-37.69,6.65-37.69,7,0,0,.18,0,.18,0,0,.18-17.23,6.66-17.23,6.87,0,0,2.8,0,2.8,0s-19,6.87-19,7.06c0,0,2.29,0,2.29,0,0,.27-20,6.61-20,6.92,0,0,4.64,0,4.64,0s-20.33,6.87-20.33,7c0,0,.33,0,.33,0,0,.23-18.67,6.79-18.67,6.91s1.9,0,1.9,0c0,.21-20.32,6.74-20.32,6.9s1.57,0,1.57,0c0,.3-20.93,6.93-20.93,7.18,0,0,4.11,0,4.11,0,0,.27-19.89,6.63-19.89,6.81,0,0,2,0,2,0s-21.21,7-21.21,7.15,3,0,3,0c0,.29-22.77,6.6-22.77,7,0,0,.26,0,.26,0s-20.43,6.6-20.43,6.9c0,0,2.16,0,2.16,0,0,.26-22.17,6.57-22.17,6.83,0,0,.89,0,.89,0,0,.21-21.61,6.54-21.61,6.82,0,0,3,0,3,0,0,.33-25.48,6.66-25.48,7,0,0,3.2,0,3.2,0s-25.86,6.72-25.86,7.1c0,0,.79,0,.79,0,0,.36-27.21,6.66-27.21,7,0,0,4.35,0,4.35,0s-26.87,6.87-26.87,7.16c0,0,3.51,0,3.51,0,0,.23-31.2,6.4-31.2,6.84,0,0,4.43,0,4.43,0,0,.31-30.91,6.8-30.91,7.11,0,.05,1.12,0,1.12,0,0,.19-31.9,6.43-31.9,6.84,0,.06,5.6,0,5.6,0,0,.42-36.26,6.54-36.26,7,0,0,2.64,0,2.64,0,0,.45-32.83,6.54-32.83,6.93,0,0,3.86,0,3.86,0,0,.52-37.14,6.41-37.14,6.91,0,0,3.74,0,3.74,0,0,.27-27.54,6.72-27.54,7.11,0,0,5.18,0,5.18,0,0,.21-19.32,7-19.32,7.13s1.08,0,1.08,0-7.45,7.12-7.45,7.18h1.09c0,.1-3.55,6.81-3.55,6.86h1c0,.09-.73,6.89-.73,7h.9c0,.06-.42,6.88-.42,7s1.64,0,1.64,0-2,6.8-2,6.86h2.13c0,.06,3.73,6.81,3.73,6.88h.27c0,.07,2.67,6.91,2.67,7s.93,0,.93,0,.61,7,.61,7.13,2.48,0,2.48,0,4.4,7,4.4,7.08,1.22,0,1.22,0,7.68,6.72,7.68,6.86,1.78,0,1.78,0c0,.16,8.13,6.78,8.13,6.86s1.95,0,1.95,0c0,.21,15.9,6.8,15.9,7s6.4,0,6.4,0"/></g><g id="contoure"><circle class="cls-7" cx="1105" cy="1105" r="1100"/></g></g></svg>